<?xml version="1.0" standalone="no"?>
<!DOCTYPE svg PUBLIC "-//W3C//DTD SVG 20010904//EN"
 "http://www.w3.org/TR/2001/REC-SVG-20010904/DTD/svg10.dtd">
<svg version="1.0" xmlns="http://www.w3.org/2000/svg"
 width="360.000000pt" height="487.000000pt" viewBox="0 0 360.000000 487.000000"
 preserveAspectRatio="xMidYMid meet">

<g transform="translate(0.000000,487.000000) scale(0.100000,-0.100000)"
fill="#000000" stroke="none">
<path d="M2190 4763 c1 -15 30 -47 36 -40 7 7 39 -14 88 -57 31 -28 40 -32 34
-16 -4 11 -140 120 -150 120 -5 0 -8 -3 -8 -7z"/>
<path d="M1750 4717 c-44 -11 -45 -11 -12 -15 36 -4 39 -9 15 -28 -16 -11 -11
-12 29 -9 29 3 50 0 54 -7 4 -7 2 -14 -4 -16 -8 -2 -7 -8 3 -19 22 -21 18 -36
-7 -30 -102 25 -150 33 -154 25 -3 -4 6 -8 19 -8 26 0 97 -26 97 -36 0 -3 -11
-3 -25 0 -35 9 -31 -1 8 -19 l32 -14 -30 5 c-24 5 -27 3 -15 -6 12 -10 12 -11
-5 -5 -74 27 -155 45 -199 45 -19 0 -41 6 -48 13 -11 12 -21 12 -62 0 -26 -8
-46 -17 -43 -19 3 -3 22 -1 43 5 28 8 34 7 26 -1 -7 -7 -34 -11 -62 -11 -28 0
-53 -3 -55 -8 -3 -4 -26 -11 -50 -15 -30 -4 -44 -11 -43 -20 2 -7 0 -13 -4
-13 -23 -2 -29 0 -23 9 3 6 -2 10 -13 10 -35 0 -287 -69 -290 -79 -2 -6 -14
-11 -26 -11 -12 0 -33 -12 -47 -27 -21 -23 -22 -25 -4 -18 11 4 29 10 40 13
11 3 25 11 30 17 12 15 100 45 130 45 11 0 26 5 31 10 6 6 24 12 40 15 16 2
43 8 60 13 29 9 30 8 26 -13 -4 -26 -40 -45 -80 -45 -26 1 -26 1 -8 15 11 8
15 15 10 15 -17 0 -33 -22 -27 -36 3 -9 -2 -14 -16 -14 -12 0 -21 6 -21 13 0
8 -3 9 -8 1 -4 -6 -20 -16 -37 -23 -18 -7 -21 -10 -8 -7 35 6 37 -11 3 -19
-16 -4 -33 -4 -37 -2 -5 3 -19 0 -33 -5 -20 -7 -22 -11 -10 -18 13 -9 13 -10
0 -10 -12 0 -13 -2 -1 -9 11 -7 9 -12 -10 -22 -13 -7 -40 -21 -59 -32 -19 -11
-46 -21 -60 -22 -14 -1 -47 -12 -73 -24 -27 -11 -51 -21 -53 -21 -11 0 -1 26
18 47 12 13 17 23 10 23 -12 0 -42 -41 -60 -82 -6 -16 -15 -28 -20 -28 -5 0
-24 -14 -43 -31 -19 -17 -49 -38 -67 -45 -17 -8 -32 -21 -32 -29 0 -9 -7 -18
-15 -21 -8 -4 -15 -14 -15 -24 0 -10 -11 -27 -23 -37 -39 -30 -51 -63 -49
-137 1 -51 -4 -79 -19 -108 -11 -21 -25 -65 -30 -96 -6 -31 -21 -84 -34 -117
-40 -105 -50 -221 -35 -415 11 -136 16 -170 27 -166 11 5 13 -9 11 -70 -3 -63
0 -78 15 -89 14 -10 16 -18 7 -39 -14 -37 -13 -46 5 -46 13 0 14 -4 5 -21 -7
-11 -9 -27 -6 -35 3 -8 2 -14 -3 -14 -16 0 -19 -50 -5 -88 17 -47 18 -184 2
-200 -7 -7 -23 -13 -38 -13 -16 -1 -19 -3 -7 -6 9 -2 17 -11 17 -19 0 -8 5
-14 11 -14 5 0 8 -4 5 -9 -4 -5 -2 -11 3 -13 13 -4 16 -65 7 -121 -8 -43 -11
-48 -30 -43 -12 3 -28 1 -36 -4 -12 -8 -12 -10 3 -16 9 -3 17 -10 17 -16 0 -5
7 -16 15 -24 20 -20 19 -40 -5 -141 -12 -47 -25 -113 -29 -146 -5 -34 -14 -76
-21 -93 -11 -25 -11 -39 1 -77 7 -26 18 -47 24 -47 15 0 45 -53 45 -79 0 -12
-6 -24 -13 -27 -18 -6 -10 -71 9 -71 9 0 14 12 14 37 0 20 4 61 9 91 5 30 12
105 15 167 4 94 2 113 -9 108 -31 -11 -23 35 20 129 15 32 26 81 31 135 6 62
10 76 14 52 8 -53 24 -37 33 34 9 69 4 100 -13 89 -6 -3 -13 2 -16 12 -3 10
-10 26 -15 36 -14 26 7 100 27 93 8 -3 14 0 15 7 4 58 5 264 1 271 -10 17 -1
111 11 118 7 4 8 8 3 8 -5 0 -3 7 4 15 7 9 10 29 7 48 -7 43 4 61 32 52 18 -5
21 -3 19 19 -1 13 -5 23 -9 20 -9 -5 -21 44 -14 57 6 9 60 40 70 39 18 -1 17
3 -5 12 l-25 11 34 9 c25 7 32 14 28 27 -3 12 5 21 26 31 16 7 32 21 34 31 3
11 9 19 14 19 5 0 9 16 9 35 0 19 -5 35 -11 35 -5 0 -7 5 -4 10 4 6 1 17 -5
25 -8 9 -10 30 -7 53 4 25 1 43 -8 56 -18 24 -19 40 -2 30 9 -6 9 -4 0 7 -17
17 -16 32 1 26 10 -4 12 0 9 14 -7 25 145 178 173 176 17 -2 19 6 18 62 0 35
2 59 4 52 2 -6 8 -11 13 -11 6 0 7 5 4 10 -3 6 3 10 15 10 17 0 20 4 15 20 -4
14 -2 20 9 20 17 0 31 34 20 52 -5 8 -2 9 9 5 11 -4 17 -1 17 7 0 8 -6 16 -14
19 -18 7 -26 54 -14 88 11 31 38 47 38 23 0 -8 -4 -13 -9 -9 -6 3 -9 -3 -9
-12 1 -10 -2 -28 -6 -41 l-7 -22 35 21 c20 11 36 27 36 35 0 17 37 37 52 28 8
-5 5 -10 -8 -14 -11 -5 -1 -7 27 -6 26 0 44 5 41 10 -3 5 7 6 22 2 18 -4 26
-2 26 7 0 7 20 21 45 32 25 11 43 25 41 30 -2 6 13 11 33 11 20 1 50 5 66 9
44 10 88 12 105 4 8 -3 38 -9 67 -13 39 -5 55 -3 67 9 11 12 29 14 71 11 32
-3 55 -1 55 5 0 6 4 8 9 5 4 -3 7 6 5 19 -1 14 2 25 7 25 5 0 9 -4 9 -9 0 -4
19 -5 42 -1 24 5 50 4 59 -1 10 -5 49 -12 88 -15 39 -4 71 -11 71 -16 0 -5 10
-6 23 -2 12 4 37 6 55 6 17 -1 32 3 32 8 0 14 61 -7 75 -26 8 -12 14 -14 19
-5 5 8 12 6 24 -6 16 -16 17 -15 20 1 4 16 5 17 23 1 10 -10 25 -15 34 -12 11
5 15 0 15 -16 1 -19 2 -20 13 -7 7 8 21 16 32 17 45 4 59 11 66 29 7 17 8 16
9 -6 2 -14 2 -29 1 -33 -1 -5 3 -6 9 -2 5 3 10 13 10 21 0 12 5 11 29 -5 15
-11 31 -18 35 -14 3 3 6 1 6 -6 0 -7 4 -10 9 -6 5 3 21 -6 35 -20 23 -23 26
-24 35 -7 9 15 10 15 11 -5 0 -13 5 -23 10 -23 6 0 10 5 10 12 0 9 3 9 12 0 7
-7 22 -12 35 -12 13 0 23 -4 23 -9 0 -5 8 -8 18 -7 12 1 18 -8 20 -29 5 -37
21 -58 39 -51 8 3 11 1 8 -4 -3 -6 3 -10 14 -10 10 0 22 6 24 13 3 6 6 2 6
-11 1 -12 6 -31 13 -42 11 -18 14 -18 30 -3 25 23 33 10 13 -21 -16 -24 -16
-26 -1 -26 9 0 16 -7 16 -16 0 -8 11 -35 25 -58 14 -24 22 -46 18 -49 -3 -4
-2 -7 3 -7 14 0 15 -41 2 -57 -8 -9 -7 -13 2 -13 9 0 10 -3 1 -13 -6 -7 -9
-29 -6 -47 2 -19 0 -37 -6 -40 -5 -4 1 -26 16 -54 30 -56 32 -71 5 -36 l-19
25 3 -26 c2 -14 6 -31 9 -37 5 -7 -1 -6 -17 1 -18 9 -22 16 -16 27 5 9 5 22
-1 31 -7 11 -9 9 -9 -8 0 -12 -4 -24 -9 -27 -5 -3 -6 -25 -4 -49 4 -32 1 -48
-11 -60 -19 -19 -43 -13 -49 11 -4 16 -5 16 -6 0 0 -9 -10 -20 -21 -23 -11 -4
-18 -11 -14 -16 4 -6 11 -6 19 1 8 7 15 7 19 1 4 -5 -3 -16 -13 -23 -20 -14
-25 -58 -8 -58 5 0 4 -7 -3 -15 -9 -11 -9 -19 3 -35 8 -12 13 -30 10 -41 -4
-14 0 -19 16 -19 14 0 21 -6 21 -20 0 -11 -6 -20 -14 -20 -9 0 -12 -8 -8 -25
2 -14 9 -25 14 -25 6 0 8 8 5 19 -4 15 1 18 35 16 25 -2 41 3 46 12 16 28 37
4 37 -41 0 -39 -2 -43 -17 -35 -13 7 -16 6 -12 -5 6 -17 -12 -31 -21 -16 -4 7
-16 2 -30 -12 -22 -22 -24 -38 -4 -38 5 0 9 7 9 15 0 8 5 15 10 15 16 0 12
-22 -7 -35 -15 -11 -16 -17 -6 -36 7 -13 14 -40 15 -59 2 -24 9 -36 21 -38 9
-2 17 1 17 7 0 6 -7 8 -15 5 -11 -5 -15 0 -14 17 0 13 3 18 6 12 2 -7 11 -13
19 -13 9 0 14 -11 14 -30 0 -33 3 -35 30 -20 15 8 20 6 25 -11 4 -11 9 -18 12
-15 4 3 13 0 21 -6 7 -7 23 -14 35 -15 11 -2 22 -5 24 -7 2 -2 6 -39 8 -82 3
-43 8 -115 11 -159 4 -44 6 -97 6 -117 -2 -44 15 -51 21 -11 3 22 4 19 6 -12
2 -36 3 -37 12 -17 5 13 6 34 3 47 -3 12 -1 26 5 29 6 4 11 30 11 58 0 28 2
49 5 46 18 -17 23 -194 6 -184 -9 6 -21 -40 -21 -79 0 -13 6 -26 13 -28 8 -4
9 -6 0 -6 -8 -1 -10 -13 -6 -36 4 -23 2 -35 -6 -35 -7 0 -11 22 -11 60 0 33
-4 60 -10 60 -5 0 -10 7 -10 15 0 8 -4 15 -9 15 -5 0 -11 8 -13 18 -6 23 -39
25 -37 3 3 -39 -1 -53 -16 -47 -16 6 -17 1 -17 -136 0 -56 -3 -78 -12 -78 -7
0 -18 -11 -24 -25 -6 -14 -18 -25 -26 -25 -17 0 -30 -49 -22 -82 3 -13 3 -17
0 -10 -3 6 -10 9 -15 6 -6 -3 -5 -11 2 -20 6 -8 9 -23 6 -33 -5 -19 -4 -19 19
-4 30 19 63 10 44 -12 -11 -13 -9 -19 9 -36 12 -12 25 -18 29 -14 4 4 1 10 -5
12 -15 5 -17 33 -3 33 19 0 10 32 -10 37 -11 3 -18 9 -15 13 3 5 1 11 -5 15
-5 3 2 17 18 30 20 19 23 24 10 25 -14 0 -15 4 -5 30 12 33 47 42 47 13 1 -17
1 -17 11 0 6 10 8 25 5 34 -5 12 -2 13 11 8 10 -4 25 -8 35 -9 11 0 18 -13 23
-40 3 -22 10 -45 15 -51 16 -19 48 -163 39 -176 -11 -17 -12 -39 -1 -39 4 0
18 9 31 19 l25 19 -18 65 c-15 56 -16 70 -5 108 9 29 10 44 3 46 -6 2 -19 9
-29 17 -16 12 -16 15 4 54 11 23 21 47 21 55 0 27 30 75 51 80 13 4 25 -2 35
-19 19 -29 34 -23 34 14 1 36 17 55 65 74 35 14 40 20 43 52 4 40 -11 52 -51
42 -22 -5 -97 -75 -131 -121 -15 -20 -16 -19 -41 9 -19 22 -24 37 -20 55 3 15
1 41 -4 58 -11 39 3 54 24 27 13 -17 14 -15 11 25 -4 40 -3 42 10 22 20 -28
38 -28 23 0 -8 17 -8 23 1 29 8 5 10 18 6 36 -18 72 -19 87 -6 79 15 -9 9 47
-10 88 -14 29 -5 51 10 27 7 -11 10 -7 10 17 0 17 -4 35 -10 38 -5 3 -10 18
-10 33 0 21 2 24 10 12 15 -24 29 0 43 76 10 52 11 124 6 289 -9 267 -19 356
-55 460 -15 45 -27 106 -28 140 -3 76 -32 142 -89 201 -39 41 -45 44 -56 30
-12 -14 -12 -16 1 -11 20 8 82 -62 98 -110 7 -20 10 -49 7 -64 -3 -16 -1 -33
5 -39 5 -5 8 -16 6 -22 -2 -7 -16 11 -32 40 -18 33 -33 50 -44 48 -8 -2 -33
14 -55 35 -21 20 -40 37 -43 37 -5 0 17 -51 29 -67 5 -7 6 -16 3 -22 -8 -13 4
-42 15 -35 5 3 9 -1 9 -10 0 -8 -6 -17 -12 -19 -9 -4 -10 -8 -3 -14 14 -11 17
-53 4 -53 -18 0 -5 -33 13 -36 14 -2 16 1 8 16 -6 12 -6 21 -1 25 5 3 16 -7
23 -21 15 -32 63 -68 52 -40 -3 9 -10 16 -15 16 -5 0 -9 10 -9 23 -1 32 -36
103 -43 86 -5 -11 -6 -11 -5 1 2 22 -13 51 -23 44 -5 -3 -9 -1 -9 5 0 5 4 12
9 16 13 7 52 -47 81 -110 12 -27 36 -76 52 -108 16 -32 28 -61 25 -64 -3 -3
-13 12 -22 32 -22 53 -26 41 -11 -33 8 -34 12 -62 10 -62 -2 0 -11 12 -19 28
-16 26 -16 26 -10 2 4 -14 9 -36 12 -50 4 -23 3 -23 -12 5 -9 17 -23 51 -31
78 -8 26 -19 47 -24 47 -13 0 -13 3 11 -75 11 -36 18 -74 16 -83 -3 -11 -7 -6
-12 15 -4 18 -12 30 -17 27 -5 -4 -8 -14 -5 -24 6 -23 -21 -36 -29 -15 -4 8
-10 12 -15 9 -5 -3 -9 3 -9 13 0 11 -7 28 -15 39 -20 26 -19 43 1 18 15 -19
16 -19 9 1 -4 11 -10 28 -12 37 -3 10 -10 15 -17 11 -6 -3 -8 -3 -4 1 4 5 3
19 -2 32 -6 15 -6 24 0 24 5 0 7 7 4 15 -4 8 -12 15 -18 15 -7 0 -13 7 -13 15
0 12 3 12 15 2 21 -16 62 -112 62 -142 0 -13 5 -27 10 -30 6 -3 11 -18 11 -33
2 -24 2 -25 6 -4 3 13 0 29 -6 35 -6 8 -6 18 -1 27 7 12 11 10 19 -10 5 -14
10 -18 10 -10 0 16 -29 60 -30 44 0 -5 -10 29 -23 76 -12 47 -27 96 -33 110
-5 14 -13 32 -16 40 -4 12 -6 12 -6 1 -1 -8 -14 4 -29 25 -44 61 -47 68 -31
62 20 -8 19 36 -1 54 -12 11 -12 11 -1 -4 16 -22 5 -24 -15 -3 -10 10 -11 15
-4 15 7 0 9 7 6 16 -4 10 -2 13 6 8 8 -5 9 -1 4 12 -6 15 -2 14 20 -6 20 -19
26 -21 21 -7 -8 21 -3 22 18 1 12 -12 19 -14 27 -6 9 9 4 20 -18 42 -16 16
-33 30 -39 30 -5 0 -3 -4 5 -10 8 -5 12 -11 9 -15 -3 -3 -14 5 -25 17 -10 12
-13 18 -6 14 6 -4 12 -3 12 1 0 5 -6 15 -12 22 -8 8 -8 11 -2 8 22 -13 12 45
-13 71 -14 15 -28 27 -31 27 -4 0 -19 9 -35 19 -15 10 -36 16 -46 13 -23 -6
-61 18 -61 38 0 7 -12 17 -27 23 -16 5 -52 33 -82 61 -52 49 -75 66 -53 39 13
-17 52 -87 52 -94 0 -3 -21 14 -46 39 -25 25 -44 50 -41 54 10 16 -58 104
-103 136 -13 9 -20 17 -14 17 5 0 15 -5 22 -12 9 -9 12 -8 12 4 0 9 -19 33
-42 53 -24 20 -36 33 -28 29 9 -4 12 -3 7 2 -5 5 -13 10 -18 10 -5 1 -13 2
-18 3 -5 0 -12 10 -16 20 -4 13 -13 18 -25 16 -10 -2 -21 3 -24 11 -3 9 -11
12 -17 9 -5 -4 -19 1 -29 10 -10 9 -24 14 -31 9 -7 -4 -10 -3 -5 4 3 6 -3 16
-15 22 -17 10 -20 9 -13 -2 5 -8 -1 -7 -19 5 -14 9 -33 17 -40 17 -8 0 -22 9
-31 19 -10 10 -32 21 -49 24 -18 3 -79 21 -137 41 -116 40 -123 41 -118 25 2
-7 25 -19 50 -27 26 -8 49 -21 53 -30 3 -8 4 -16 3 -17 -2 -1 -38 13 -82 30
-67 28 -75 34 -60 44 14 8 15 11 4 11 -8 0 -24 2 -35 4 -11 2 -40 -1 -65 -7z
m147 -91 c15 -13 25 -27 22 -30 -3 -3 -21 8 -40 24 -19 16 -29 29 -22 30 7 0
25 -11 40 -24z m127 6 c3 -5 -1 -9 -9 -9 -8 0 -15 4 -15 9 0 4 4 8 9 8 6 0 12
-4 15 -8z m46 -17 c11 -13 10 -14 -4 -9 -9 3 -16 10 -16 15 0 13 6 11 20 -6z
m-69 -12 c13 -15 12 -15 -8 -4 -24 12 -29 21 -14 21 5 0 15 -7 22 -17z m160
-20 c13 -15 12 -15 -8 -4 -24 12 -29 21 -14 21 5 0 15 -7 22 -17z m-316 -23
c8 -13 -5 -13 -25 0 -13 8 -13 10 2 10 9 0 20 -4 23 -10z m-496 -55 c-24 -7
-60 -15 -79 -18 l-35 -7 38 26 c22 15 47 24 58 21 10 -3 22 -1 25 4 3 6 12 5
21 -3 13 -11 9 -14 -28 -23z m941 19 c0 -8 -5 -12 -10 -9 -6 4 -8 11 -5 16 9
14 15 11 15 -7z m-470 -4 c0 -5 -6 -10 -14 -10 -8 0 -18 5 -21 10 -3 6 3 10
14 10 12 0 21 -4 21 -10z m63 -7 c-7 -2 -21 -2 -30 0 -10 3 -4 5 12 5 17 0 24
-2 18 -5z m97 -38 c10 -15 7 -14 -13 4 -15 14 -27 29 -27 33 0 10 16 -5 40
-37z m375 7 c-3 -3 -11 0 -18 7 -9 10 -8 11 6 5 10 -3 15 -9 12 -12z m-475
-18 c0 -2 -9 0 -20 6 -11 6 -20 13 -20 16 0 2 9 0 20 -6 11 -6 20 -13 20 -16z
m574 -45 c-2 -4 4 -9 13 -11 12 -2 14 -6 6 -11 -7 -4 -20 5 -34 24 -21 30 -21
30 -1 18 11 -7 19 -16 16 -20z m-1224 7 c0 -2 -7 -7 -16 -10 -8 -3 -12 -2 -9
4 6 10 25 14 25 6z m620 -26 c8 -5 11 -10 5 -10 -5 0 -17 5 -25 10 -8 5 -10
10 -5 10 6 0 17 -5 25 -10z m555 -18 c-3 -3 -11 0 -18 7 -9 10 -8 11 6 5 10
-3 15 -9 12 -12z m-97 -28 c4 2 17 -10 30 -25 13 -16 21 -29 18 -29 -11 0 -86
73 -86 83 0 6 7 1 16 -11 8 -12 18 -21 22 -18z m-185 -16 c10 -10 14 -18 10
-18 -8 0 -83 51 -83 56 0 8 56 -22 73 -38z m262 22 c8 -13 -5 -13 -25 0 -13 8
-13 10 2 10 9 0 20 -4 23 -10z m-95 -42 c0 -5 -8 0 -18 10 -11 9 -17 21 -14
25 4 8 31 -22 32 -35z m240 7 c13 -14 19 -25 13 -25 -5 0 -20 11 -33 25 -13
14 -19 25 -13 25 5 0 20 -11 33 -25z m-435 -29 c39 -28 58 -46 48 -46 -4 0 1
-7 11 -15 11 -8 15 -15 10 -15 -18 0 -124 87 -124 102 0 10 8 6 55 -26z m350
24 c3 -5 2 -10 -4 -10 -5 0 -13 5 -16 10 -3 6 -2 10 4 10 5 0 13 -4 16 -10z
m72 -35 c45 -32 58 -54 21 -34 -21 11 -22 11 -9 -4 22 -28 -1 -18 -39 15 -23
20 -28 29 -15 24 19 -6 19 -5 3 8 -18 13 -25 31 -10 24 4 -1 26 -16 49 -33z
m-632 7 c-3 -3 -11 0 -18 7 -9 10 -8 11 6 5 10 -3 15 -9 12 -12z m328 -38 c-5
-13 -8 -13 -23 1 -9 8 -19 12 -22 9 -3 -3 -9 -1 -12 5 -4 6 4 8 20 5 19 -3 24
-1 18 8 -6 10 -4 10 8 0 9 -8 14 -20 11 -28z m105 25 c-2 -3 4 -14 12 -24 8
-11 10 -16 3 -11 -19 11 -38 49 -23 44 6 -2 10 -6 8 -9z m307 -28 c4 -10 0 -9
-15 4 -11 10 -20 15 -20 11 0 -4 -5 -4 -10 -1 -6 4 -8 10 -5 15 7 12 43 -9 50
-29z m-544 -48 c13 -16 12 -17 -3 -4 -10 7 -18 15 -18 17 0 8 8 3 21 -13z
m123 9 c2 -4 -4 -8 -14 -8 -10 0 -16 4 -14 8 3 4 9 8 14 8 5 0 11 -4 14 -8z
m-1560 -127 c-7 -17 -20 -20 -29 -6 -3 5 3 12 12 14 10 3 19 5 20 6 1 0 0 -6
-3 -14z m-108 -27 c-9 -13 -21 -33 -26 -45 -10 -25 -20 -30 -20 -10 0 19 38
77 51 77 7 0 5 -9 -5 -22z m387 7 c-3 -9 -8 -14 -10 -11 -3 3 -2 9 2 15 9 16
15 13 8 -4z m1737 -35 c0 -5 -5 -10 -11 -10 -5 0 -7 5 -4 10 3 6 8 10 11 10 2
0 4 -4 4 -10z m-2223 -112 c-3 -8 -6 -5 -6 6 -1 11 2 17 5 13 3 -3 4 -12 1
-19z m439 -40 c-9 -12 -16 -19 -16 -15 0 11 24 47 28 42 2 -2 -3 -14 -12 -27z
m-176 -94 c0 -15 -61 -64 -71 -58 -7 4 0 17 17 34 27 26 54 38 54 24z m-217
-114 c-18 -17 -35 -30 -40 -30 -11 0 50 58 62 59 6 0 -4 -13 -22 -29z m183
-14 c-8 -20 -12 -36 -8 -36 22 -1 -28 -20 -51 -20 -24 0 -27 3 -24 27 3 22 10
29 35 34 19 4 33 2 36 -5 2 -6 5 -2 5 10 1 21 11 37 18 30 2 -2 -3 -20 -11
-40z m-242 -31 c3 -8 1 -15 -4 -15 -6 0 -10 7 -10 15 0 8 2 15 4 15 2 0 6 -7
10 -15z m-79 -70 c-9 -20 -18 -35 -21 -32 -3 2 3 21 12 41 23 47 29 40 9 -9z
m155 41 c0 -2 -8 -10 -17 -17 -16 -13 -17 -12 -4 4 13 16 21 21 21 13z m10
-30 c0 -3 -4 -8 -10 -11 -5 -3 -10 -1 -10 4 0 6 5 11 10 11 6 0 10 -2 10 -4z
m-86 -58 c-15 -23 -35 -60 -45 -82 -14 -31 -19 -36 -19 -18 0 12 11 40 25 62
28 44 31 55 13 44 -7 -4 -8 -3 -4 5 4 6 11 9 16 6 4 -3 13 2 20 10 23 28 20
15 -6 -27z m2553 22 c3 -11 9 -20 14 -20 5 0 9 -5 9 -12 0 -6 -11 -1 -25 12
-27 25 -32 40 -14 40 6 0 13 -9 16 -20z m-2397 1 c0 -5 -6 -16 -12 -23 -7 -7
-13 -19 -14 -25 -4 -47 -4 -48 -13 -34 -11 17 -3 50 17 74 17 19 22 21 22 8z
m2480 -32 c0 -6 -4 -7 -10 -4 -5 3 -10 11 -10 16 0 6 5 7 10 4 6 -3 10 -11 10
-16z m-2450 1 c0 -5 -8 -7 -17 -3 -15 5 -14 3 2 -10 17 -13 18 -18 6 -29 -10
-9 -12 -9 -7 0 4 6 3 12 -3 12 -5 0 -12 -6 -15 -12 -4 -10 -1 36 3 50 3 7 31
0 31 -8z m2391 -75 c12 -25 25 -48 30 -51 5 -3 9 -15 8 -27 0 -17 -4 -13 -15
14 -8 20 -26 41 -40 47 -13 7 -24 17 -24 24 0 9 3 8 10 -2 11 -17 13 -10 4 14
-3 9 -10 13 -15 10 -5 -3 -9 0 -9 5 0 28 32 6 51 -34z m-2688 -30 c-7 -21 -13
-19 -13 6 0 11 4 18 10 14 5 -3 7 -12 3 -20z m44 -67 c-2 -13 -4 -5 -4 17 -1
22 1 32 4 23 2 -10 2 -28 0 -40z m2657 26 c4 -12 2 -15 -9 -10 -18 7 -19 2 -4
-27 11 -21 11 -21 -11 1 -21 23 -21 24 -4 37 11 8 20 15 20 15 1 0 5 -7 8 -16z
m185 -84 c-1 -24 -1 -24 -14 5 -7 17 -11 34 -8 39 8 13 23 -16 22 -44z m98 18
c-3 -7 -5 -2 -5 12 0 14 2 19 5 13 2 -7 2 -19 0 -25z m-243 -13 c5 -22 4 -26
-4 -15 -5 8 -10 24 -10 34 0 26 6 18 14 -19z m84 -74 l-1 -46 -4 43 c-2 23 -8
42 -14 42 -5 0 -9 17 -9 38 l1 37 14 -34 c8 -18 14 -54 13 -80z m-2661 17 c-3
-7 -5 -2 -5 12 0 14 2 19 5 13 2 -7 2 -19 0 -25z m2698 22 c-2 -4 0 -21 5 -38
5 -19 5 -34 -1 -37 -5 -4 -9 6 -9 20 0 15 -4 34 -9 44 -7 13 -6 18 4 18 8 0
12 -3 10 -7z m142 -12 c-3 -8 -6 -5 -6 6 -1 11 2 17 5 13 3 -3 4 -12 1 -19z
m-43 -26 c10 -56 18 -127 13 -122 -5 4 -37 144 -37 158 0 2 4 1 9 -3 5 -3 12
-18 15 -33z m-64 -3 c0 -6 10 -20 23 -31 12 -11 16 -16 9 -13 -10 5 -13 0 -11
-21 1 -16 1 -49 0 -74 -2 -35 -4 -41 -11 -25 -8 18 -9 18 -10 -5 -1 -23 -2
-23 -9 -5 -5 11 -4 25 1 32 7 9 7 26 0 53 -7 27 -6 40 1 43 7 2 7 13 -1 35 -6
19 -7 30 -2 27 6 -4 10 -11 10 -16z m133 -56 c8 -38 13 -70 11 -72 -8 -9 -16
8 -21 48 -3 23 -10 41 -14 41 -5 0 -9 11 -9 25 0 48 18 25 33 -42z m-2967 41
c-3 -9 -6 -20 -6 -25 0 -5 -6 -9 -14 -9 -11 0 -12 5 -3 25 13 27 33 35 23 9z
m2731 -6 c-3 -8 -6 -5 -6 6 -1 11 2 17 5 13 3 -3 4 -12 1 -19z m-157 -99 c0
-6 -4 -7 -10 -4 -5 3 -10 11 -10 16 0 6 5 7 10 4 6 -3 10 -11 10 -16z m-41
-40 c10 -18 11 -23 0 -30 -19 -11 -38 8 -32 31 7 26 15 25 32 -1z m-2449 1 c0
-5 -5 -10 -11 -10 -5 0 -7 5 -4 10 3 6 8 10 11 10 2 0 4 -4 4 -10z m2530 -20
c0 -5 -5 -10 -11 -10 -5 0 -7 5 -4 10 3 6 8 10 11 10 2 0 4 -4 4 -10z m-2607
-25 c-3 -9 -8 -14 -10 -11 -3 3 -2 9 2 15 9 16 15 13 8 -4z m2834 -27 c-3 -8
-6 -5 -6 6 -1 11 2 17 5 13 3 -3 4 -12 1 -19z m120 0 c-3 -8 -6 -5 -6 6 -1 11
2 17 5 13 3 -3 4 -12 1 -19z m-2970 -20 c-3 -8 -6 -5 -6 6 -1 11 2 17 5 13 3
-3 4 -12 1 -19z m2920 -10 c-3 -8 -6 -5 -6 6 -1 11 2 17 5 13 3 -3 4 -12 1
-19z m-77 -33 c0 -5 -5 -3 -10 5 -5 8 -10 20 -10 25 0 6 5 3 10 -5 5 -8 10
-19 10 -25z m57 3 c-3 -8 -6 -5 -6 6 -1 11 2 17 5 13 3 -3 4 -12 1 -19z m-227
-42 c0 -3 -4 -8 -10 -11 -5 -3 -10 -1 -10 4 0 6 5 11 10 11 6 0 10 -2 10 -4z
m-8 -35 c-7 -4 -12 -14 -10 -21 2 -8 -5 -16 -14 -18 -10 -2 -18 1 -18 7 0 6 5
11 11 11 6 0 9 7 5 15 -4 11 1 15 17 15 15 0 18 -3 9 -9z m3 -71 c-3 -5 -17
-9 -30 -8 -31 3 -21 18 11 18 14 0 22 -4 19 -10z m-2658 -67 c-3 -10 -5 -4 -5
12 0 17 2 24 5 18 2 -7 2 -21 0 -30z m2643 26 c0 -5 5 -7 10 -4 6 3 13 -1 16
-10 10 -25 -3 -28 -25 -6 -23 23 -26 31 -11 31 6 0 10 -5 10 -11z m227 -176
c-2 -16 -4 -5 -4 22 0 28 2 40 4 28 2 -13 2 -35 0 -50z m-2870 35 c-3 -8 -6
-5 -6 6 -1 11 2 17 5 13 3 -3 4 -12 1 -19z m2818 -55 c-4 -21 -11 -45 -16 -53
-10 -15 -5 29 7 73 10 32 16 17 9 -20z m26 -80 c-10 -17 -10 -16 -11 3 0 23
13 41 18 25 2 -6 -1 -18 -7 -28z m86 -45 c-3 -7 -5 -2 -5 12 0 14 2 19 5 13 2
-7 2 -19 0 -25z m-177 -239 c0 -10 -4 -19 -10 -19 -5 0 -10 12 -10 26 0 14 4
23 10 19 6 -3 10 -15 10 -26z m99 24 c0 -5 -4 -17 -9 -28 -8 -18 -9 -17 -9 8
-1 15 4 27 9 27 6 0 10 -3 9 -7z m25 -67 c-6 -19 -5 -19 10 -7 9 8 19 11 22 8
8 -8 -38 -66 -53 -66 -7 -1 -17 -9 -22 -18 -10 -17 -10 -17 -11 0 0 11 9 32
20 47 11 16 16 31 11 34 -6 4 -5 18 2 36 11 29 12 29 19 9 5 -12 5 -31 2 -43z
m-85 -118 c1 -20 -3 -39 -8 -42 -5 -4 -8 20 -8 54 2 63 15 53 16 -12z m-45 38
c-3 -9 -10 -16 -15 -16 -5 0 -4 9 3 20 14 22 21 20 12 -4z m16 -67 c0 -4 -7
-6 -15 -3 -8 4 -15 10 -15 15 0 4 7 6 15 3 8 -4 15 -10 15 -15z m-53 -11 c-3
-8 -6 -5 -6 6 -1 11 2 17 5 13 3 -3 4 -12 1 -19z m-50 -50 c-3 -8 -6 -5 -6 6
-1 11 2 17 5 13 3 -3 4 -12 1 -19z m-11 -33 c1 -8 -2 -13 -7 -9 -5 3 -9 12 -9
21 0 19 13 9 16 -12z"/>
<path d="M1583 4613 c9 -2 23 -2 30 0 6 3 -1 5 -18 5 -16 0 -22 -2 -12 -5z"/>
<path d="M956 4421 c-3 -5 3 -11 14 -14 13 -3 20 0 20 9 0 15 -26 19 -34 5z"/>
<path d="M2563 4402 c1 -14 5 -18 11 -12 7 7 6 14 -1 21 -9 9 -12 7 -10 -9z"/>
<path d="M2620 4368 c0 -9 7 -19 16 -22 25 -10 27 -1 4 19 -17 15 -20 16 -20
3z"/>
<path d="M855 4361 c-6 -5 -19 -11 -30 -14 -11 -3 -3 -4 17 -3 20 2 39 -1 40
-6 2 -5 11 -6 20 -3 9 4 14 13 11 21 -6 16 -44 19 -58 5z"/>
<path d="M2690 4300 c11 -22 18 -40 14 -40 -8 0 13 -19 64 -59 24 -18 40 -36
38 -39 -3 -3 -14 1 -24 9 -10 8 -7 4 8 -8 14 -12 37 -34 51 -49 25 -25 49 -26
49 -3 0 6 -4 8 -9 5 -4 -3 -22 5 -39 17 -27 21 -29 24 -14 35 16 11 15 12 -2
9 -13 -1 -26 10 -40 35 -11 21 -31 45 -43 53 -14 10 -20 22 -17 33 5 14 4 14
-4 2 -9 -12 -13 -9 -21 13 -6 15 -15 27 -21 27 -6 0 -1 -18 10 -40z"/>
<path d="M844 4314 c-18 -14 -18 -15 4 -4 12 6 22 13 22 15 0 8 -5 6 -26 -11z"/>
<path d="M2656 4301 c31 -35 36 -38 28 -16 -4 8 -10 15 -15 15 -5 0 -8 5 -6
12 1 6 -6 14 -16 16 -15 3 -13 -2 9 -27z"/>
<path d="M2730 4205 c7 -9 15 -13 17 -11 7 7 -7 26 -19 26 -6 0 -6 -6 2 -15z"/>
<path d="M3069 4122 c15 -52 32 -75 44 -63 9 9 7 21 -8 48 -26 47 -47 56 -36
15z"/>
<path d="M2926 4092 c-2 -4 7 -12 20 -19 13 -6 24 -7 24 -2 0 12 -38 31 -44
21z"/>
<path d="M3013 4072 c0 -12 10 -23 20 -26 18 -4 18 -4 1 17 -11 12 -20 24 -21
26 -1 2 -1 -6 0 -17z"/>
<path d="M3041 4077 c2 -1 13 -9 24 -17 19 -14 19 -14 6 3 -7 9 -18 17 -24 17
-6 0 -8 -1 -6 -3z"/>
<path d="M2365 4029 c-11 -17 1 -21 15 -4 8 9 8 15 2 15 -6 0 -14 -5 -17 -11z"/>
<path d="M3075 4020 c3 -5 14 -10 23 -10 15 0 15 2 2 10 -20 13 -33 13 -25 0z"/>
<path d="M3050 3981 c0 -5 7 -12 16 -15 24 -9 28 -7 14 9 -14 17 -30 20 -30 6z"/>
<path d="M3094 3956 c-5 -12 -10 -13 -26 -5 -13 7 -18 7 -14 1 3 -6 2 -12 -3
-14 -5 -1 -2 -10 7 -18 14 -13 15 -12 9 3 -8 22 2 22 19 0 13 -17 14 -17 8 0
-4 11 -1 17 10 17 18 0 22 15 6 25 -6 3 -13 -1 -16 -9z"/>
<path d="M3128 3923 c7 -3 16 -2 19 1 4 3 -2 6 -13 5 -11 0 -14 -3 -6 -6z"/>
<path d="M3160 3853 c0 -3 11 -21 25 -39 l26 -34 -25 9 c-13 6 -27 7 -32 3 -4
-4 -4 -1 0 6 4 7 13 9 19 6 7 -4 9 -3 5 1 -5 5 -20 10 -34 11 -24 3 -25 2 -11
-19 8 -12 21 -23 28 -23 35 -4 59 -18 59 -35 0 -10 4 -20 8 -23 20 -12 0 68
-25 104 -26 36 -43 50 -43 33z"/>
<path d="M846 3698 c-11 -41 -6 -54 9 -24 9 17 12 33 7 38 -6 6 -12 0 -16 -14z"/>
<path d="M3140 3521 c0 -11 4 -22 9 -25 4 -3 6 6 3 19 -5 30 -12 33 -12 6z"/>
<path d="M2873 2945 c-24 -23 -30 -45 -12 -45 5 0 7 4 4 10 -3 5 0 7 9 4 18
-7 61 30 51 45 -9 16 -27 12 -52 -14z"/>
<path d="M880 2940 c-19 -10 -45 -24 -58 -29 -25 -12 -21 -31 5 -31 13 0 12
-5 -6 -24 -22 -24 -64 -41 -88 -37 -21 3 -62 -29 -56 -45 3 -8 0 -14 -6 -14
-6 0 -11 -5 -11 -11 0 -5 5 -7 11 -3 8 4 9 -4 4 -27 -10 -45 -16 -54 -26 -38
-8 12 -11 11 -19 -1 -8 -13 -10 -12 -10 4 0 20 0 20 -14 0 -13 -17 -14 -15 -6
21 5 22 14 41 21 44 8 2 8 5 -1 11 -9 6 -7 13 9 29 22 22 28 51 11 51 -5 0
-10 -9 -10 -19 0 -12 -9 -23 -22 -27 -29 -8 -41 -26 -25 -36 6 -4 8 -10 3 -15
-4 -4 -12 0 -17 10 -6 9 -15 17 -21 17 -6 0 -8 -3 -5 -7 4 -3 1 -16 -6 -27 -7
-12 -12 -43 -11 -71 1 -27 3 -66 4 -85 l1 -35 14 30 c7 17 16 38 19 48 3 9 13
17 22 17 12 0 15 -6 10 -25 -5 -19 -2 -27 11 -31 43 -13 93 -38 93 -44 0 -14
-28 -19 -64 -13 -23 3 -36 11 -36 20 0 10 6 13 16 9 8 -3 12 -2 9 4 -9 15 -55
12 -55 -4 0 -7 -7 -19 -15 -26 -8 -7 -15 -18 -15 -24 0 -6 4 -4 10 4 16 26 25
-1 9 -29 -9 -15 -13 -35 -9 -46 4 -12 1 -25 -7 -33 -7 -7 -13 -21 -13 -30 0
-15 2 -15 10 -2 6 10 10 11 10 3 0 -7 7 -13 15 -13 8 0 15 5 15 12 0 8 3 8 9
2 10 -10 -34 -155 -51 -165 -5 -3 -2 -9 7 -13 23 -9 25 -8 25 9 0 8 9 15 20
15 24 0 26 16 5 36 -18 19 -11 35 25 63 35 25 43 6 10 -22 -20 -17 -27 -37
-12 -37 4 0 16 11 26 25 10 14 27 25 37 25 10 0 20 4 24 9 3 5 19 12 35 16 17
4 35 15 41 26 5 11 6 19 2 18 -22 -4 -43 2 -43 12 0 6 9 8 20 4 16 -5 20 -2
21 17 1 18 2 19 6 4 4 -15 11 -17 45 -12 28 5 47 2 63 -8 23 -15 57 -23 135
-31 25 -2 57 -6 73 -8 15 -3 30 0 33 4 3 5 15 3 26 -5 22 -16 43 -12 71 12 19
17 24 3 5 -16 -9 -9 -8 -12 6 -12 9 0 15 4 12 9 -3 5 1 14 9 21 11 9 15 9 15
1 0 -7 4 -9 10 -6 6 4 7 -2 1 -17 -5 -13 -13 -22 -18 -21 -5 1 -14 -7 -21 -17
-11 -19 -10 -19 36 0 26 11 54 24 63 29 10 6 30 6 45 2 24 -6 29 -13 27 -35
-2 -24 0 -26 13 -15 9 8 13 21 10 35 -4 16 -1 23 16 27 12 4 25 2 29 -4 3 -6
22 4 44 25 21 20 34 36 30 36 -4 0 1 8 12 18 11 9 28 33 38 52 10 19 26 43 36
53 15 14 17 22 9 37 -6 11 -8 20 -5 20 4 0 -9 19 -29 41 -34 40 -35 43 -20 70
16 32 7 62 -21 73 -9 3 -13 2 -10 -4 9 -15 -13 -12 -43 5 -15 8 -39 19 -54 25
-18 6 -28 17 -28 30 0 11 -5 20 -11 20 -5 0 -7 -6 -4 -12 4 -7 0 -6 -7 2 -18
20 -58 42 -58 32 0 -4 6 -14 13 -21 10 -10 9 -11 -6 -5 -9 3 -20 17 -23 29 -6
25 -36 43 -42 26 -2 -7 -12 -5 -25 4 -12 8 -34 15 -50 15 -15 0 -26 4 -23 9 8
12 -194 6 -227 -8 -37 -15 -44 -14 -51 5 -3 8 -2 12 4 9 6 -3 10 -2 10 3 0 6
-7 13 -16 16 -19 7 -12 9 -54 -14z m335 -145 c22 -10 43 -18 46 -17 4 0 17
-10 29 -23 13 -14 20 -25 15 -25 -4 0 -16 10 -26 22 -17 19 -19 19 -19 3 0
-15 -6 -17 -46 -11 -55 7 -219 -26 -272 -55 -26 -15 -37 -17 -42 -8 -5 7 -15
9 -26 5 -37 -15 -92 -15 -103 -2 -9 10 -8 15 3 19 9 4 18 2 21 -3 4 -6 16 -10
28 -10 20 0 20 0 1 15 -10 8 -28 15 -39 15 -20 1 -20 1 -1 15 27 21 53 20 36
0 -10 -12 -9 -15 8 -15 13 0 22 9 26 24 4 18 11 23 25 19 13 -3 25 3 36 20 20
31 43 36 165 32 66 -1 107 -8 135 -20z m-382 8 c-7 -2 -19 -2 -25 0 -7 3 -2 5
12 5 14 0 19 -2 13 -5z m392 -93 c25 -11 -1 -11 -35 0 -20 6 -21 8 -5 8 11 0
29 -3 40 -8z m-669 -58 c-11 -10 -15 4 -8 28 l7 25 3 -23 c2 -13 1 -26 -2 -30z
m609 -2 c-3 -5 -10 -10 -16 -10 -5 0 -9 5 -9 10 0 6 7 10 16 10 8 0 12 -4 9
-10z m155 -57 c30 -35 37 -52 18 -46 -4 2 -28 4 -53 5 -47 1 -48 4 -29 66 6
22 30 13 64 -25z m-306 11 c9 -24 7 -54 -4 -54 -5 0 -10 5 -10 11 0 7 -7 17
-17 24 -17 13 -10 35 12 35 7 0 16 -7 19 -16z m-304 -4 c4 0 6 -9 3 -20 -8
-28 -30 -25 -36 6 -3 19 -1 24 10 20 8 -3 18 -6 23 -6z m740 -46 c0 -11 -4
-10 -19 3 -11 9 -18 20 -15 25 8 12 34 -11 34 -28z m38 14 c-6 -18 -28 -21
-28 -4 0 9 7 16 16 16 9 0 14 -5 12 -12z m-462 -53 c-5 -19 -3 -23 9 -19 8 4
15 15 15 26 0 11 5 16 11 13 20 -13 67 -16 74 -5 3 5 17 10 31 10 14 0 23 -4
20 -8 -2 -4 4 -8 15 -8 10 0 19 4 19 9 0 4 10 1 21 -7 12 -8 28 -12 35 -9 20
8 17 -15 -6 -39 -34 -37 -208 -53 -300 -28 -25 7 -57 12 -72 11 -23 0 -28 4
-28 23 0 18 7 25 28 29 15 3 29 1 30 -4 6 -16 48 -10 72 11 30 26 33 25 26 -5z
m459 11 c25 10 25 -13 0 -42 -50 -58 -56 -62 -77 -56 -17 4 -20 2 -15 -11 8
-20 -14 -28 -36 -12 -10 7 -28 11 -40 8 -21 -4 -21 -4 -2 8 11 7 27 13 35 14
8 0 15 9 15 20 0 21 -20 24 -62 11 -25 -8 -33 8 -9 17 8 3 47 9 86 13 62 6 73
10 78 28 3 11 7 15 9 9 3 -7 10 -10 18 -7z m-158 -12 c-3 -3 -12 -4 -19 -1 -8
3 -5 6 6 6 11 1 17 -2 13 -5z m-517 -74 c0 -5 -2 -10 -4 -10 -3 0 -8 5 -11 10
-3 6 -1 10 4 10 6 0 11 -4 11 -10z m535 -50 c8 -13 -5 -13 -25 0 -13 8 -13 10
2 10 9 0 20 -4 23 -10z m-142 -27 c-7 -2 -19 -2 -25 0 -7 3 -2 5 12 5 14 0 19
-2 13 -5z"/>
<path d="M1064 2494 c3 -9 6 -20 6 -25 0 -5 4 -9 10 -9 5 0 7 7 4 15 -4 9 0
15 7 15 11 0 11 3 -1 10 -22 14 -33 12 -26 -6z"/>
<path d="M895 2490 c-3 -5 -1 -10 4 -10 6 0 11 5 11 10 0 6 -2 10 -4 10 -3 0
-8 -4 -11 -10z"/>
<path d="M1160 2483 c0 -17 66 -17 73 0 3 8 -7 12 -34 12 -25 0 -39 -4 -39
-12z"/>
<path d="M2230 2925 c-11 -13 -10 -14 5 -9 13 5 16 4 11 -4 -4 -7 -13 -12 -21
-12 -7 0 -16 -6 -19 -12 -3 -7 -3 -2 0 10 10 40 -30 10 -53 -39 -15 -32 -21
-38 -26 -25 -4 10 -3 15 3 11 6 -4 10 7 9 27 0 18 -3 26 -6 18 -4 -8 -17 -23
-30 -33 -12 -10 -23 -28 -23 -40 0 -18 -2 -19 -10 -7 -8 13 -10 12 -10 -2 0
-11 -8 -18 -20 -18 -26 0 -111 -40 -115 -54 -2 -6 -6 -33 -10 -60 -5 -34 -9
-45 -15 -35 -5 7 -12 10 -16 6 -4 -4 1 -16 11 -27 10 -11 13 -20 7 -20 -8 0
-9 -11 -5 -32 6 -31 5 -32 -12 -18 -17 14 -18 13 -11 -10 4 -14 9 -47 11 -73
2 -26 11 -60 21 -75 10 -15 17 -31 16 -35 -1 -4 7 -3 19 3 16 9 24 8 39 -5 10
-9 16 -23 13 -31 -3 -8 0 -14 6 -14 6 0 11 -5 11 -11 0 -16 103 -128 118 -129
6 0 12 6 13 13 0 6 5 0 11 -15 9 -27 22 -36 31 -20 5 8 -37 74 -47 73 -20 -3
-26 0 -21 9 4 6 10 8 15 5 5 -3 12 0 16 6 4 8 9 7 15 -2 7 -11 9 -11 9 2 0 21
27 32 37 15 5 -6 23 -18 41 -25 18 -8 37 -22 43 -33 5 -10 14 -16 20 -13 5 4
9 -1 9 -9 0 -8 9 -17 19 -21 10 -3 21 -15 24 -25 6 -25 40 -27 35 -2 -2 9 -10
16 -16 14 -12 -2 -15 18 -12 73 2 45 9 62 27 69 14 6 14 3 -1 -19 -10 -15 -15
-34 -13 -43 3 -12 5 -10 6 6 0 13 6 20 11 17 6 -3 10 1 10 10 0 9 4 14 9 11 5
-3 11 1 14 8 3 8 1 17 -6 20 -7 4 -2 4 10 2 13 -2 26 0 29 6 3 5 16 7 29 4 13
-3 39 1 59 9 42 18 126 14 159 -8 12 -7 37 -17 55 -20 18 -4 45 -15 60 -26 15
-11 37 -22 49 -26 18 -5 22 -3 17 9 -4 9 0 24 7 33 10 12 10 15 1 9 -7 -4 -19
0 -29 9 -13 14 -14 18 -3 25 11 7 11 11 1 24 -12 15 -15 15 -27 -1 -13 -17
-13 -17 -14 0 0 20 -30 23 -30 3 0 -8 12 -24 28 -37 l27 -21 -25 7 c-36 11
-80 34 -80 43 0 4 7 15 14 25 14 18 14 18 19 0 4 -16 5 -16 6 -1 2 27 95 17
127 -13 30 -28 43 -18 15 10 -12 12 -21 25 -21 30 0 5 -6 11 -12 14 -7 2 1 8
17 12 60 14 62 15 42 30 -13 9 -27 11 -47 5 -24 -7 -36 -3 -67 22 -42 33 -49
53 -18 53 11 0 20 -6 20 -14 0 -14 47 -22 64 -11 10 7 42 72 31 65 -4 -3 -11
12 -14 33 -14 79 -18 92 -27 86 -6 -3 -8 12 -7 37 2 28 -1 43 -10 45 -7 1 -8
0 -2 -3 5 -2 10 -12 10 -20 0 -13 -4 -12 -18 5 -10 11 -30 24 -45 27 -15 4
-30 11 -33 16 -8 14 -24 10 -24 -6 0 -13 -3 -13 -20 -3 -15 10 -19 20 -15 39
4 17 0 30 -10 39 -12 10 -15 10 -15 -4 0 -9 5 -16 11 -16 5 0 7 -4 4 -10 -8
-13 -34 11 -28 26 5 13 -24 27 -38 18 -5 -3 -9 6 -9 20 0 14 -4 26 -10 26 -5
0 -10 -9 -10 -19 0 -27 -17 -35 -28 -14 -7 12 -24 17 -59 18 -26 1 -55 5 -63
10 -8 5 -23 8 -34 6 -10 -1 -23 3 -27 11 -7 11 -11 10 -19 -2 -6 -10 -10 -11
-10 -3 0 14 -97 13 -119 -2 -8 -4 -16 -3 -21 4 -5 9 -10 8 -20 -4z m285 -135
c3 -5 17 -10 31 -10 13 0 24 -4 24 -10 0 -5 7 -7 15 -4 9 4 15 0 15 -10 0 -10
9 -16 23 -17 12 0 16 -3 10 -6 -7 -2 -13 -11 -13 -18 0 -16 -27 -28 -35 -15
-6 10 -51 7 -62 -3 -4 -4 2 -14 13 -22 25 -19 11 -18 -51 1 -111 34 -286 49
-269 23 3 -5 -2 -9 -10 -9 -9 0 -16 7 -16 15 0 9 9 15 24 15 14 0 28 5 31 10
4 6 16 8 27 4 17 -5 20 -3 15 10 -4 10 -1 16 8 16 8 0 15 4 15 9 0 24 191 44
205 21z m-364 -124 c-7 -8 -21 -12 -33 -8 -18 4 -20 2 -14 -14 6 -15 5 -17 -5
-6 -16 15 -4 29 31 35 14 2 27 5 29 6 2 0 -2 -5 -8 -13z m269 -52 c0 -8 -5
-12 -10 -9 -6 4 -8 11 -5 16 9 14 15 11 15 -7z m-122 -69 c9 -22 19 -41 23
-43 4 -2 5 -10 2 -19 -4 -11 -2 -14 5 -9 8 5 12 0 12 -12 0 -17 -5 -19 -32
-13 -34 7 -53 41 -24 41 10 0 13 -6 9 -17 -4 -11 -3 -14 5 -9 21 13 13 36 -12
36 -12 0 -37 5 -54 11 -29 10 -30 11 -14 29 9 10 23 26 30 35 19 23 32 15 50
-30z m261 16 c19 -12 -3 -49 -36 -62 -36 -13 -38 -6 -11 35 25 39 27 40 47 27z
m-459 -35 c0 -8 -7 -16 -15 -20 -15 -5 -21 14 -8 27 11 12 23 8 23 -7z m90 -6
c0 -5 -2 -10 -4 -10 -3 0 -8 5 -11 10 -3 6 -1 10 4 10 6 0 11 -4 11 -10z m293
-39 c6 -6 4 -16 -6 -25 -10 -10 -17 -12 -19 -5 -3 8 -15 8 -43 0 -33 -9 -40
-8 -51 7 -8 9 -14 22 -14 27 0 13 120 9 133 -4z m-236 -17 c-3 -3 -12 -4 -19
-1 -8 3 -5 6 6 6 11 1 17 -2 13 -5z m-97 -15 c0 -5 6 -7 13 -3 10 6 10 4 0 -7
-7 -7 -13 -22 -13 -33 1 -20 1 -20 14 -3 16 21 30 23 23 3 -4 -10 -1 -13 9 -9
8 3 14 -1 14 -11 0 -14 17 -21 41 -18 4 1 6 -6 5 -16 -1 -12 6 -17 22 -16 12
0 21 -4 19 -10 -5 -12 -51 -10 -82 3 -11 5 -33 12 -48 16 -17 3 -25 10 -21 17
5 7 2 9 -9 5 -20 -7 -41 18 -33 39 4 11 2 15 -8 11 -9 -3 -16 2 -19 15 -5 17
-2 19 18 15 14 -2 22 0 19 4 -3 5 4 9 15 9 12 0 21 -5 21 -11z m360 -20 c0 -5
-6 -9 -14 -9 -8 0 -16 -6 -19 -14 -8 -19 -41 -13 -45 7 -3 13 4 17 27 17 17 0
31 5 31 11 0 5 5 7 10 4 6 -3 10 -10 10 -16z m-95 -8 c3 -5 1 -12 -5 -16 -5
-3 -10 1 -10 9 0 18 6 21 15 7z m182 -3 c-21 -7 -32 -7 -40 1 -8 8 0 11 29 10
39 -1 39 -1 11 -11z m113 -28 c-20 -13 -40 -12 -40 1 0 6 7 9 15 5 10 -3 15 1
15 11 0 14 3 14 12 5 10 -10 10 -15 -2 -22z m48 11 c3 -8 -1 -12 -9 -9 -7 2
-15 10 -17 17 -3 8 1 12 9 9 7 -2 15 -10 17 -17z m-28 -31 c0 -5 -4 -10 -10
-10 -5 0 -10 5 -10 10 0 6 5 10 10 10 6 0 10 -4 10 -10z m-10 -24 c0 -11 -19
-15 -25 -6 -3 5 1 10 9 10 9 0 16 -2 16 -4z m-360 -47 c0 -5 -4 -9 -10 -9 -5
0 -10 7 -10 16 0 8 5 12 10 9 6 -3 10 -10 10 -16z m-210 -28 c0 -12 -20 -25
-27 -18 -7 7 6 27 18 27 5 0 9 -4 9 -9z m207 -33 c-3 -8 -6 -5 -6 6 -1 11 2
17 5 13 3 -3 4 -12 1 -19z"/>
<path d="M2170 2360 c0 -5 5 -10 11 -10 5 0 7 5 4 10 -3 6 -8 10 -11 10 -2 0
-4 -4 -4 -10z"/>
<path d="M2071 2894 c0 -11 3 -14 6 -6 3 7 2 16 -1 19 -3 4 -6 -2 -5 -13z"/>
<path d="M2750 2820 c0 -5 5 -10 10 -10 6 0 10 5 10 10 0 6 -4 10 -10 10 -5 0
-10 -4 -10 -10z"/>
<path d="M2860 2810 c0 -5 5 -10 11 -10 5 0 7 5 4 10 -3 6 -8 10 -11 10 -2 0
-4 -4 -4 -10z"/>
<path d="M2920 2699 c0 -15 28 -58 33 -52 4 3 7 -1 7 -10 0 -27 15 -20 27 13
6 17 8 30 3 30 -5 0 -10 -6 -13 -12 -3 -9 -10 -7 -21 7 -8 11 -16 16 -16 10 0
-5 -5 -3 -10 5 -5 8 -10 12 -10 9z"/>
<path d="M3000 2646 c0 -8 -2 -20 -3 -28 -2 -7 -2 -9 1 -5 2 4 10 3 18 -4 11
-9 14 -7 14 14 0 14 -7 27 -15 31 -9 3 -15 0 -15 -8z"/>
<path d="M3080 2610 c-13 -9 -13 -11 0 -20 15 -10 25 0 18 20 -2 6 -8 6 -18 0z"/>
<path d="M2980 2570 c0 -5 5 -10 10 -10 6 0 10 5 10 10 0 6 -4 10 -10 10 -5 0
-10 -4 -10 -10z"/>
<path d="M3030 2554 c0 -9 5 -14 12 -12 18 6 21 28 4 28 -9 0 -16 -7 -16 -16z"/>
<path d="M2960 2460 c0 -5 4 -10 9 -10 6 0 13 5 16 10 3 6 -1 10 -9 10 -9 0
-16 -4 -16 -10z"/>
<path d="M415 2300 c2 -39 10 -58 19 -49 7 7 -6 89 -14 89 -4 0 -6 -18 -5 -40z"/>
<path d="M1935 2307 c-4 -11 -3 -23 4 -30 15 -15 19 -7 11 23 -6 22 -8 23 -15
7z"/>
<path d="M1207 2303 c-10 -9 -9 -23 2 -23 5 0 11 7 15 15 5 15 -5 20 -17 8z"/>
<path d="M100 2255 c0 -19 4 -43 9 -53 5 -9 14 -36 21 -60 10 -38 14 -42 33
-36 28 8 28 8 31 35 1 13 7 33 14 45 14 26 -3 53 -52 83 -46 29 -56 27 -56
-14z"/>
<path d="M2910 2260 c0 -5 5 -10 10 -10 6 0 10 5 10 10 0 6 -4 10 -10 10 -5 0
-10 -4 -10 -10z"/>
<path d="M2232 2200 c-11 -17 -10 -23 3 -37 15 -14 15 -13 9 12 -5 20 -4 26 4
21 8 -5 10 -2 6 8 -8 20 -7 20 -22 -4z"/>
<path d="M2415 2180 c-3 -5 -1 -10 4 -10 6 0 11 5 11 10 0 6 -2 10 -4 10 -3 0
-8 -4 -11 -10z"/>
<path d="M2280 2144 c0 -8 5 -12 10 -9 6 3 10 10 10 16 0 5 -4 9 -10 9 -5 0
-10 -7 -10 -16z"/>
<path d="M2235 2120 c3 -5 10 -10 16 -10 5 0 9 5 9 10 0 6 -7 10 -16 10 -8 0
-12 -4 -9 -10z"/>
<path d="M2395 2090 c-3 -5 -1 -10 4 -10 6 0 11 5 11 10 0 6 -2 10 -4 10 -3 0
-8 -4 -11 -10z"/>
<path d="M1223 2033 c-7 -19 -29 -36 -52 -40 -47 -7 -62 -15 -57 -28 3 -8 0
-15 -5 -15 -6 0 -9 9 -6 20 3 11 1 23 -4 26 -5 3 -9 -7 -9 -21 0 -18 -4 -25
-13 -22 -8 3 -18 -7 -24 -24 -8 -21 -8 -29 0 -29 6 0 2 -10 -10 -22 -20 -20
-25 -20 -48 -8 -14 7 -28 10 -32 7 -3 -4 1 -7 10 -7 10 0 14 -5 11 -15 -4 -8
-1 -15 5 -15 6 0 11 -5 11 -11 0 -6 -9 -8 -20 -4 -23 7 -26 -1 -7 -20 10 -9
19 -10 33 -3 12 6 10 2 -5 -10 -14 -11 -31 -18 -38 -15 -8 3 -13 -3 -13 -16 0
-11 -10 -26 -22 -32 -21 -11 -21 -12 -3 -25 17 -13 17 -14 -1 -20 -55 -17 -67
-25 -56 -36 9 -9 15 -7 25 6 11 15 18 16 33 8 10 -5 22 -10 27 -11 22 -1 39
-19 31 -32 -5 -8 -9 -33 -10 -57 -1 -24 -6 -48 -13 -55 -8 -8 -9 0 -6 29 2 21
1 33 -2 26 -2 -6 -9 -10 -14 -6 -5 3 -9 0 -9 -5 0 -6 4 -11 9 -11 14 0 6 -59
-13 -103 -10 -22 -12 -36 -6 -32 9 5 10 -8 5 -50 -5 -40 -4 -56 3 -51 6 3 13
0 15 -6 4 -10 6 -10 6 0 1 6 6 12 12 12 6 0 10 -10 9 -22 -1 -13 -1 -39 0 -58
2 -33 3 -33 10 -10 10 31 13 -91 4 -139 -7 -33 -34 -44 -34 -13 0 28 -20 -8
-20 -38 l0 -25 -20 25 c-11 14 -20 19 -20 13 0 -7 -4 -13 -10 -13 -6 0 -6 9 0
24 5 15 5 27 -3 35 -8 8 -14 1 -23 -25 -13 -39 -9 -67 10 -58 6 3 4 0 -4 -8
-16 -14 -24 -68 -10 -68 4 0 10 6 13 13 3 8 12 5 29 -11 13 -12 27 -19 31 -16
3 3 3 -3 0 -15 -3 -12 -9 -21 -13 -21 -4 0 -10 -9 -13 -21 -4 -15 -2 -19 9
-15 10 4 14 -3 14 -24 0 -17 -2 -30 -4 -30 -20 0 -36 17 -37 39 l-1 26 -12
-28 c-7 -15 -16 -24 -20 -20 -4 4 -14 -1 -22 -11 -12 -17 -14 -18 -20 -2 -7
20 12 46 35 46 12 1 10 4 -7 13 -28 16 -55 54 -47 67 3 6 2 10 -4 10 -6 0 -13
-11 -17 -25 -7 -30 -20 -32 -29 -6 -3 11 -12 22 -20 25 -8 3 -14 2 -12 -2 1
-4 -2 -7 -8 -7 -5 0 -9 4 -7 9 2 5 -2 22 -9 38 -9 21 -16 27 -30 23 -14 -5
-19 -1 -19 14 0 14 -9 23 -25 27 -20 5 -25 13 -25 36 0 24 -3 29 -16 24 -22
-8 -54 21 -54 48 -1 20 -1 20 -14 3 -8 -10 -17 -14 -20 -8 -3 5 -19 7 -35 5
-26 -4 -28 -2 -29 28 0 18 4 38 10 45 8 10 6 13 -6 13 -8 0 -18 -10 -20 -22
-7 -33 -4 -88 5 -88 13 0 17 -39 3 -44 -16 -6 -13 -78 3 -83 6 -2 9 -13 6 -24
-3 -10 0 -25 6 -32 6 -8 8 -17 4 -20 -6 -6 1 -25 54 -144 21 -48 154 -284 173
-308 5 -6 30 -16 57 -24 78 -23 195 -87 234 -128 132 -137 136 -141 202 -162
90 -28 160 -39 332 -56 168 -16 251 -28 407 -56 64 -11 181 -21 295 -25 l188
-7 71 37 c69 35 194 65 271 66 17 0 38 7 47 15 8 9 19 14 23 13 4 -2 10 8 11
22 2 14 14 39 26 55 28 37 61 131 75 210 8 41 30 94 73 170 108 191 118 212
144 286 17 48 22 75 15 77 -6 2 -11 8 -11 14 0 6 7 8 15 4 17 -6 21 19 5 29
-5 3 -9 14 -9 23 1 15 2 15 6 0 2 -10 9 -18 15 -18 6 0 8 3 5 7 -4 3 -3 11 2
17 22 29 20 48 -6 72 -27 25 -26 47 2 24 13 -11 15 -7 15 26 -1 37 -18 74 -35
74 -4 0 -3 -6 3 -13 8 -10 8 -19 -2 -33 -7 -10 -16 -31 -20 -47 -6 -24 -9 -26
-26 -17 -11 6 -20 19 -20 29 0 10 -7 24 -15 31 -16 14 -20 40 -6 40 5 0 7 9 4
21 -4 12 0 25 8 29 7 5 10 12 6 16 -4 4 -15 -2 -25 -14 -11 -12 -22 -19 -26
-15 -3 3 -6 -1 -6 -10 0 -10 -4 -17 -9 -17 -15 0 -17 72 -3 109 18 45 10 49
-14 6 -10 -19 -22 -35 -25 -35 -4 0 -3 -17 3 -37 5 -21 9 -46 9 -56 0 -13 4
-16 12 -9 7 5 20 12 31 16 16 6 18 3 13 -24 -5 -21 -3 -30 6 -30 7 0 13 -12
14 -27 1 -23 0 -25 -6 -8 -7 19 -10 18 -40 -12 -17 -17 -34 -47 -38 -65 l-7
-33 -7 30 c-5 16 -4 32 1 35 5 3 5 11 0 20 -8 13 -10 12 -10 -2 0 -10 -4 -18
-9 -18 -15 0 -23 -63 -9 -72 9 -5 7 -8 -7 -8 -18 -1 -18 -2 3 -10 12 -5 22
-14 22 -20 0 -13 -2 -13 -36 5 -28 14 -29 14 -35 -13 -4 -15 -7 -20 -8 -11 0
9 -10 24 -21 34 -22 20 -26 14 -9 -17 13 -25 5 -35 -16 -18 -10 8 -15 9 -15 1
0 -6 5 -11 11 -11 8 0 9 -12 4 -37 -7 -33 -10 -53 -14 -84 -1 -4 -17 -10 -36
-13 -29 -6 -35 -12 -41 -41 -3 -18 -3 -38 0 -44 4 -5 2 -12 -4 -16 -5 -3 -10
-1 -10 4 0 6 -8 11 -18 11 -10 0 -23 5 -30 12 -7 7 -12 8 -12 4 0 -5 -7 -3
-15 4 -12 10 -15 10 -15 -4 0 -9 7 -16 15 -16 9 0 13 -7 11 -17 -6 -32 -18
-53 -26 -48 -5 3 -13 -3 -19 -12 -8 -14 -11 -15 -12 -3 -1 8 -1 22 0 30 1 8
-6 3 -16 -12 -18 -26 -19 -26 -31 -8 -16 26 -15 31 3 24 18 -7 21 22 3 30 -10
5 -10 7 0 12 17 8 15 24 -2 24 -8 0 -17 -8 -19 -17 -4 -14 -5 -13 -6 4 0 12 3
24 8 27 4 3 7 18 5 33 -2 16 -1 22 2 16 11 -24 24 -13 18 15 -4 21 -3 24 5 12
7 -10 11 -11 11 -2 0 6 6 12 14 12 8 0 14 6 13 13 -1 38 5 57 18 57 17 0 20
16 5 25 -6 4 -7 11 -4 17 4 7 9 6 14 -2 4 -6 10 7 13 31 4 29 1 46 -9 56 -17
17 -18 29 -2 39 6 4 8 3 4 -4 -3 -6 -2 -13 4 -17 10 -6 15 14 11 44 -2 7 2 10
8 6 7 -4 11 9 11 37 0 24 3 54 7 67 4 17 3 22 -5 17 -7 -4 -12 -25 -12 -47 0
-21 -4 -39 -8 -39 -4 0 -8 18 -7 40 0 22 3 40 8 40 4 0 7 9 7 19 0 10 7 21 15
25 17 6 21 36 5 36 -6 0 -13 -7 -16 -15 -5 -13 -10 -12 -25 6 -11 12 -19 28
-19 36 0 7 -4 13 -10 13 -5 0 -10 9 -10 19 0 11 -4 23 -10 26 -15 9 -12 25 5
25 9 0 12 -6 9 -15 -4 -8 -1 -15 5 -15 6 0 11 -7 11 -15 0 -8 5 -15 10 -15 14
0 12 27 -2 33 -9 4 -10 8 -3 14 6 4 11 22 10 40 0 24 3 29 13 21 16 -14 17 23
1 39 -6 6 -8 17 -4 23 6 9 10 8 17 -4 11 -19 28 -21 28 -3 -1 21 -39 59 -51
51 -9 -5 -10 -2 -6 12 7 18 6 18 -7 2 -7 -10 -17 -18 -21 -18 -4 0 -2 7 5 14
8 10 8 21 2 32 -6 11 -11 13 -16 5 -13 -21 -26 -11 -26 19 0 17 -4 30 -10 30
-5 0 -10 8 -10 18 0 12 -4 10 -13 -8 -9 -17 -10 -27 -3 -32 7 -5 4 -8 -6 -8
-10 0 -18 7 -18 16 0 9 -6 14 -12 11 -7 -2 -21 0 -30 5 -24 12 -23 3 2 -20 26
-24 61 -92 46 -89 -6 1 -21 17 -34 35 -24 34 -38 42 -28 17 5 -13 2 -14 -17
-3 -12 7 -27 13 -34 13 -7 0 -19 9 -27 20 -14 18 -15 19 -16 2 0 -11 -4 -15
-12 -11 -8 5 -9 2 -5 -9 10 -27 -12 -20 -25 7 -15 34 -42 44 -33 13 6 -20 6
-20 -6 -5 -8 9 -26 22 -41 27 -18 7 -28 18 -28 30 0 32 -17 34 -28 4 -6 -16
-11 -21 -11 -12 -1 19 22 69 32 69 4 0 7 -6 7 -14 0 -7 6 -18 13 -24 9 -8 12
-2 14 24 1 19 -2 32 -6 30 -7 -5 -4 49 5 92 5 25 24 30 24 7 0 -8 7 -15 15
-15 11 0 14 -7 9 -25 -5 -19 -2 -25 10 -25 10 0 16 8 16 22 l0 21 18 -21 c9
-12 25 -33 35 -47 10 -14 22 -23 26 -20 5 2 8 -3 7 -13 -1 -12 6 -17 22 -16
12 0 22 -5 22 -13 0 -7 6 -13 13 -13 6 0 23 -9 37 -20 31 -24 36 -25 43 -2 2
9 8 25 12 34 5 12 1 17 -17 20 -17 2 -22 9 -21 26 2 12 -2 22 -7 22 -6 0 -10
7 -10 15 0 9 -6 12 -15 9 -11 -5 -13 -2 -9 10 5 12 2 15 -10 10 -9 -3 -16 -1
-16 5 0 6 5 11 11 11 13 0 1 42 -15 52 -19 13 -38 9 -32 -7 3 -8 2 -15 -3 -15
-5 0 -12 12 -15 26 -5 19 -11 24 -26 19 -20 -6 -48 18 -99 84 -28 37 -50 28
-43 -19 7 -49 -13 -83 -61 -102 -49 -20 -97 -26 -117 -13 -17 11 -181 15 -175
4 3 -4 -5 -10 -17 -14 -13 -3 -40 -11 -60 -17 -27 -8 -52 -8 -94 0 -31 7 -60
9 -65 6 -5 -3 -9 0 -9 6 0 6 -20 20 -45 31 -43 19 -76 24 -199 34 -63 4 -81
23 -80 81 1 31 -2 42 -10 34 -15 -15 -29 -12 -22 5 3 9 0 15 -10 15 -8 0 -18
-8 -21 -17z m-27 -149 c-3 -7 -1 -16 4 -19 6 -4 10 -1 10 4 0 6 6 11 13 11 9
0 11 -12 9 -40 -3 -25 0 -40 7 -40 6 0 11 -7 11 -16 0 -8 5 -12 10 -9 19 12
10 -10 -14 -32 -13 -13 -26 -33 -29 -45 l-6 -23 17 21 c9 12 22 30 28 40 7 11
15 16 19 12 4 -4 0 -14 -9 -23 -9 -9 -16 -22 -16 -30 0 -20 -29 -71 -37 -65
-5 3 -9 -8 -10 -25 -2 -25 -1 -27 7 -10 14 31 12 -4 -3 -46 -14 -40 -37 -73
-45 -64 -3 3 -11 0 -19 -7 -11 -9 -12 -7 -6 8 9 24 28 44 42 44 6 0 11 4 11
10 0 5 -8 7 -17 3 -17 -6 -17 -5 -1 14 22 24 23 109 3 89 -9 -8 -10 -13 -2
-18 7 -4 7 -11 -2 -22 -7 -9 -17 -13 -21 -11 -5 3 -17 -8 -26 -25 -10 -16 -22
-30 -27 -30 -4 0 -5 -4 -2 -10 3 -5 1 -18 -4 -27 -9 -16 -10 -15 -11 7 -1 20
-6 16 -25 -25 -26 -54 -30 -75 -15 -75 6 0 10 8 10 17 0 9 2 14 5 11 11 -11
14 -50 5 -71 -8 -20 -9 -20 -10 8 0 20 -3 26 -9 17 -6 -10 -10 -8 -15 10 l-7
23 -9 -22 c-14 -33 -23 -28 -15 8 4 17 8 40 10 52 2 12 7 40 10 62 5 29 4 36
-4 25 -5 -8 -13 -38 -17 -67 -3 -29 -9 -53 -13 -53 -10 0 13 142 27 167 6 12
12 25 12 30 -1 4 -7 -3 -15 -17 -8 -14 -14 -20 -15 -15 0 6 7 21 16 33 22 31
12 57 -16 40 -14 -9 -22 -10 -31 -1 -14 14 -2 36 17 29 9 -3 19 4 26 19 14 31
28 33 20 3 -3 -14 -2 -19 6 -14 7 4 12 13 12 19 0 7 21 34 46 62 25 27 52 62
60 77 8 16 19 26 24 23 6 -3 7 1 4 10 -5 11 -2 14 10 9 10 -4 15 -13 12 -20z
m122 -92 c-10 -2 -18 -8 -18 -13 0 -13 24 -11 38 3 9 9 12 8 12 -6 0 -25 -31
-87 -40 -81 -5 3 -16 -2 -24 -11 -20 -20 -21 -5 -1 22 10 16 12 30 6 52 -10
34 2 54 28 44 14 -6 14 -7 -1 -10z m72 -2 c0 -5 -7 -10 -15 -10 -8 0 -15 5
-15 10 0 6 7 10 15 10 8 0 15 -4 15 -10z m83 -10 c-5 -19 -23 -29 -23 -12 0 7
20 32 26 32 1 0 0 -9 -3 -20z m-61 -15 c3 -13 2 -22 -2 -20 -4 3 -10 -5 -13
-17 -4 -12 -9 -19 -13 -16 -5 6 13 78 21 78 1 0 5 -11 7 -25z m-43 -39 c-8
-22 -16 -31 -20 -24 -8 12 19 74 28 65 3 -3 -1 -22 -8 -41z m511 3 c0 -13 4
-18 13 -13 9 5 9 3 -1 -7 -11 -12 -14 -12 -22 1 -13 20 -13 40 0 40 6 0 10 -9
10 -21z m-441 -16 c1 9 6 17 12 17 7 0 9 -11 6 -26 -2 -14 -1 -42 4 -62 4 -20
4 -43 -1 -51 -6 -12 -8 -9 -8 9 0 14 -5 41 -10 60 -10 34 -10 34 -11 6 -1 -23
-4 -26 -15 -17 -11 9 -12 19 -3 47 9 30 12 33 18 18 7 -17 8 -17 8 -1z m1036
7 c3 -6 -1 -7 -9 -4 -18 7 -21 14 -7 14 6 0 13 -4 16 -10z m-883 -49 c-3 -40
-1 -51 15 -62 11 -8 22 -21 26 -29 3 -9 6 -3 6 14 1 21 -3 27 -13 23 -10 -4
-13 -1 -9 9 3 8 11 13 17 11 6 -2 20 12 32 31 19 32 22 33 37 17 9 -9 22 -13
28 -9 9 5 10 -1 5 -19 -3 -15 -1 -29 6 -33 7 -5 8 -3 3 6 -5 8 -4 11 2 7 6 -4
14 -28 18 -54 4 -27 13 -56 22 -65 14 -15 16 -15 35 4 27 27 37 98 14 98 -14
0 -15 2 -4 14 11 12 15 9 24 -18 10 -25 13 -28 19 -14 15 38 23 5 10 -40 -20
-64 -19 -66 15 -42 l30 21 0 -23 c0 -22 -19 -63 -20 -43 0 6 -5 2 -11 -8 -8
-14 -14 -16 -25 -6 -11 9 -18 9 -29 -1 -26 -22 -114 -14 -195 17 -20 8 -30 10
-62 11 -19 1 -28 8 -28 18 0 13 -3 14 -15 4 -8 -7 -21 -10 -30 -7 -8 4 -21 0
-29 -8 -21 -21 -22 -20 -23 23 0 20 1 32 4 25 3 -8 12 -7 33 5 22 13 32 29 42
72 8 33 18 54 26 53 7 -2 12 8 12 22 0 14 4 25 9 25 4 0 6 -22 3 -49z m175 17
c-3 -8 -6 -5 -6 6 -1 11 2 17 5 13 3 -3 4 -12 1 -19z m26 2 c-3 -11 -7 -20 -9
-20 -2 0 -4 9 -4 20 0 11 4 20 9 20 5 0 7 -9 4 -20z m280 5 c-3 -9 -8 -14 -10
-11 -3 3 -2 9 2 15 9 16 15 13 8 -4z m-116 -17 c-3 -8 -6 -5 -6 6 -1 11 2 17
5 13 3 -3 4 -12 1 -19z m-137 -26 c0 -15 -2 -15 -10 -2 -13 20 -13 33 0 25 6
-3 10 -14 10 -23z m201 -15 c-10 -9 -11 -8 -5 6 3 10 9 15 12 12 3 -3 0 -11
-7 -18z m136 1 c-3 -8 -6 -5 -6 6 -1 11 2 17 5 13 3 -3 4 -12 1 -19z m-230
-10 c-3 -8 -6 -5 -6 6 -1 11 2 17 5 13 3 -3 4 -12 1 -19z m25 -3 c-2 -14 -6
-25 -8 -25 -2 0 -4 11 -4 25 0 14 4 25 9 25 4 0 6 -11 3 -25z m-644 3 c-4 -18
-28 -41 -35 -34 -3 3 2 15 12 26 21 23 26 25 23 8z m907 -80 c-5 -14 -3 -18 4
-14 7 5 11 -2 11 -16 0 -19 -2 -20 -10 -8 -24 35 -32 52 -21 46 6 -4 11 -2 11
4 0 7 -7 9 -16 6 -9 -3 -17 -6 -18 -6 -2 0 -2 -12 0 -27 l4 -28 -15 30 c-16
35 -19 65 -6 65 5 0 12 -8 15 -17 2 -10 2 0 -1 22 l-5 40 27 -38 c18 -26 24
-44 20 -59z m-699 45 c-11 -11 -17 4 -9 23 7 18 8 18 11 1 2 -10 1 -21 -2 -24z
m534 29 c0 -5 -9 -19 -20 -32 -11 -13 -20 -18 -20 -12 0 7 8 21 18 31 20 23
22 24 22 13z m37 -69 c-3 -10 -5 -4 -5 12 0 17 2 24 5 18 2 -7 2 -21 0 -30z
m263 27 c0 -5 -1 -12 -2 -14 -2 -2 4 -12 13 -22 9 -11 19 -26 23 -34 6 -12 5
-12 -6 1 -7 9 -19 14 -25 12 -8 -3 -13 4 -13 15 0 11 -3 27 -6 36 -3 9 -1 16
5 16 6 0 11 -4 11 -10z m199 -12 c1 7 5 10 11 7 6 -4 5 -13 -2 -25 -14 -22
-28 -9 -27 25 l0 20 9 -20 c5 -11 9 -14 9 -7z m-1395 -12 c-6 -15 -24 -23 -24
-11 0 8 24 34 28 30 1 -1 0 -10 -4 -19z m189 -8 c-3 -18 -10 -40 -15 -48 -8
-14 -4 17 9 63 8 30 13 19 6 -15z m103 -20 c3 -31 2 -39 -6 -28 -6 10 -10 11
-10 3 0 -7 -7 -10 -16 -6 -11 4 -12 8 -4 13 7 4 14 18 15 31 4 40 5 43 11 37
3 -4 8 -26 10 -50z m-144 17 c-2 -14 -9 -25 -14 -25 -5 0 -7 3 -5 8 2 4 7 15
10 25 9 25 15 21 9 -8z m1273 -24 c-4 -13 1 -24 15 -34 14 -9 17 -17 11 -22
-6 -3 -11 -1 -11 5 0 6 -4 9 -9 6 -5 -3 -7 -16 -4 -29 4 -15 2 -19 -5 -12 -13
12 -17 64 -7 88 10 23 18 22 10 -2z m-1218 -13 c-3 -8 -6 -5 -6 6 -1 11 2 17
5 13 3 -3 4 -12 1 -19z m-136 -15 c-12 -20 -14 -14 -5 12 4 9 9 14 11 11 3 -2
0 -13 -6 -23z m-110 -6 c-10 -9 -11 -8 -5 6 3 10 9 15 12 12 3 -3 0 -11 -7
-18z m875 8 c-8 -8 -17 -15 -20 -15 -3 0 -6 7 -6 15 0 9 9 15 21 15 18 0 19
-2 5 -15z m49 -4 c-3 -6 3 -14 12 -20 16 -9 14 -10 -9 -11 -16 0 -28 2 -28 4
0 14 14 36 22 36 5 0 7 -4 3 -9z m131 -39 c1 -20 -1 -30 -4 -22 -3 8 -11 19
-18 23 -8 4 -14 13 -14 20 0 8 3 8 9 -1 7 -11 9 -11 14 2 9 24 12 20 13 -22z
m-1212 -14 c-10 -18 -19 -27 -22 -20 -4 14 26 67 35 59 2 -3 -3 -20 -13 -39z
m1248 -10 c-7 -7 -12 -8 -12 -2 0 6 3 14 7 17 3 4 9 5 12 2 2 -3 -1 -11 -7
-17z m-756 -8 c19 -7 30 -7 40 1 18 15 98 3 115 -17 9 -11 15 -11 25 -3 15 12
95 4 127 -12 9 -6 23 -7 29 -3 16 10 120 4 135 -7 7 -7 13 -6 18 1 7 11 78 14
88 3 4 -3 28 -7 54 -7 42 -1 48 -4 51 -24 2 -15 9 -22 17 -18 8 3 17 1 20 -5
4 -5 11 -7 16 -4 17 11 9 -4 -16 -30 -20 -19 -36 -25 -67 -25 -33 0 -39 -3
-30 -12 7 -7 12 -18 12 -26 0 -7 6 -20 14 -28 13 -12 15 -12 19 4 3 12 5 11 6
-6 0 -13 5 -20 11 -17 6 4 24 8 41 10 17 3 39 14 49 26 14 15 25 19 42 13 21
-6 21 -5 9 10 -12 14 -11 19 6 35 23 22 53 11 53 -19 0 -11 5 -20 10 -20 6 0
10 -10 10 -22 0 -19 -2 -20 -10 -8 -8 12 -10 11 -10 -7 0 -13 5 -23 10 -23 6
0 10 -14 10 -30 0 -21 9 -40 28 -57 15 -15 22 -23 16 -20 -6 3 -23 -14 -39
-39 -20 -32 -31 -41 -37 -32 -6 11 -8 11 -8 0 0 -7 12 -24 28 -37 21 -19 23
-24 10 -25 -13 0 -16 -8 -14 -41 l3 -40 -33 47 c-19 26 -34 46 -35 43 -6 -35
-10 -44 -23 -51 -9 -5 -16 -16 -16 -23 0 -8 -9 -15 -19 -15 -22 0 -36 -29 -21
-44 16 -16 12 -25 -10 -19 -16 4 -20 0 -21 -18 -1 -13 -1 -27 -1 -30 1 -4 -8
-5 -18 -2 -12 3 -20 0 -20 -6 0 -7 -4 -10 -8 -7 -4 2 -9 -9 -10 -25 -1 -16 2
-29 8 -29 5 0 7 8 4 18 -5 13 -4 14 4 3 6 -8 8 -20 5 -28 -4 -9 0 -11 13 -6
14 5 16 3 11 -13 -5 -15 -3 -14 10 4 15 22 17 22 36 5 20 -17 20 -17 13 1 -5
16 -4 17 9 6 13 -11 14 -7 9 30 l-6 42 31 -17 c33 -17 56 -12 47 10 -5 15 20
55 35 55 6 0 8 -10 4 -22 -5 -18 -4 -20 4 -8 10 13 12 13 21 0 5 -8 10 -29 10
-47 0 -17 3 -34 8 -37 4 -2 7 39 7 91 l-1 95 28 -31 c15 -17 28 -40 28 -51 0
-10 4 -21 8 -24 4 -2 6 12 4 32 -3 25 -1 34 6 27 14 -15 27 -169 13 -161 -6 4
-11 18 -11 32 0 13 -2 24 -4 24 -2 0 -11 3 -20 6 -22 9 -20 -12 5 -47 19 -27
19 -30 3 -46 -16 -16 -16 -16 -10 4 4 13 1 25 -9 33 -14 11 -17 10 -22 -8 -3
-12 -9 -22 -14 -22 -5 0 -6 -8 -3 -18 3 -9 -2 -6 -11 8 -13 20 -15 21 -12 5 3
-11 8 -29 12 -40 7 -18 6 -18 -14 3 -17 17 -26 20 -35 13 -7 -6 -16 -8 -19 -4
-4 3 -7 1 -7 -5 0 -7 7 -12 15 -12 15 0 20 -12 9 -23 -12 -12 -34 22 -34 53 0
32 -30 56 -38 31 -3 -10 -6 -10 -12 -1 -6 9 -12 9 -29 -2 -18 -11 -23 -11 -32
2 -18 26 -7 -42 12 -70 33 -52 31 -54 -13 -7 -24 26 -47 44 -51 41 -11 -11 -8
-24 6 -24 13 0 47 -74 47 -103 0 -17 15 -24 23 -9 2 4 2 1 0 -6 -1 -8 -3 -21
-3 -29 0 -12 -3 -13 -14 -4 -12 10 -13 8 -9 -9 3 -11 9 -23 13 -25 9 -5 26 40
33 85 3 20 5 16 12 -17 8 -46 24 -51 19 -6 -2 16 -1 20 2 10 3 -9 10 -17 16
-17 10 0 8 -22 -8 -104 -5 -21 -8 -25 -15 -15 -7 12 -9 11 -9 -1 0 -12 -2 -12
-9 -1 -7 10 -12 8 -25 -10 -9 -13 -16 -33 -17 -44 0 -11 -3 -14 -6 -7 -5 13
-35 17 -30 4 1 -4 -2 -8 -8 -10 -5 -2 -13 7 -16 20 -4 18 -7 13 -12 -22 -3
-24 -11 -46 -16 -48 -6 -2 -9 -8 -6 -12 3 -5 -6 -7 -20 -4 -22 4 -25 1 -25
-23 l0 -28 -15 29 c-8 15 -15 40 -14 55 0 14 3 20 6 14 9 -24 18 -13 17 20 -2
78 -3 80 -19 67 -18 -15 -20 -37 -2 -43 9 -4 9 -7 -1 -18 -11 -12 -14 -12 -22
1 -12 19 -13 4 -1 -38 6 -20 6 -32 0 -32 -5 0 -9 -7 -9 -16 0 -32 -17 -3 -18
32 -2 46 -12 59 -12 15 0 -24 -6 -34 -22 -40 -13 -5 -24 -8 -25 -7 -9 8 -11
144 -3 156 8 11 9 7 5 -15 -6 -29 -6 -29 9 -11 18 22 19 32 6 61 -6 13 -9 15
-9 5 -1 -8 -10 0 -22 19 -16 27 -23 31 -30 20 -7 -11 -9 -10 -10 6 -1 11 -3
27 -4 35 -1 8 -3 25 -4 38 0 13 -6 20 -11 17 -7 -4 -6 -13 1 -26 6 -12 8 -23
6 -26 -13 -12 -27 40 -21 77 5 31 3 45 -11 60 -14 16 -15 24 -6 51 12 34 9 45
-8 34 -16 -10 -13 -66 5 -86 8 -9 14 -28 12 -41 -4 -20 -7 -17 -26 22 -11 25
-21 42 -21 38 -2 -12 29 -102 44 -128 7 -14 13 -47 13 -74 0 -26 5 -53 11 -59
7 -7 8 -2 5 14 -5 19 -4 21 5 9 14 -19 14 -53 1 -45 -5 3 -10 -3 -10 -15 0
-13 4 -19 12 -14 8 5 9 -2 5 -24 -5 -24 -2 -34 14 -45 17 -13 18 -16 4 -27
-12 -10 -15 -10 -16 1 0 8 -7 1 -15 -16 l-15 -30 5 37 4 36 -29 -31 c-16 -17
-27 -37 -24 -44 3 -9 1 -11 -8 -6 -6 4 -20 6 -29 5 -14 -3 -18 4 -18 28 0 25
4 31 15 26 11 -4 15 1 15 17 0 32 -22 59 -39 48 -10 -7 -11 -13 -1 -32 10 -19
10 -22 0 -12 -7 6 -16 26 -20 45 l-8 33 -1 -42 c-1 -52 8 -81 20 -61 6 9 9 2
9 -19 0 -18 -4 -33 -10 -33 -5 0 -10 6 -10 14 0 8 -5 18 -12 22 -8 5 -9 0 -6
-14 7 -26 -7 -29 -21 -5 -10 17 -10 17 -11 1 0 -10 -7 -18 -15 -18 -8 0 -15 9
-15 20 0 21 -15 27 -25 10 -4 -6 -11 -8 -16 -5 -5 4 -9 1 -9 -4 0 -6 -4 -11
-10 -11 -5 0 -10 7 -10 15 0 8 -4 15 -10 15 -5 0 -6 -8 -3 -17 6 -16 5 -16
-10 -4 -9 7 -14 17 -11 22 3 5 -2 6 -10 3 -9 -3 -17 -16 -17 -28 -2 -19 -2
-18 -6 3 -6 31 -35 61 -41 43 -3 -10 -8 -8 -18 5 -13 17 -15 17 -33 -4 l-19
-23 -6 35 c-5 22 -13 35 -23 35 -8 0 -13 -6 -10 -13 3 -8 -1 -14 -9 -14 -8 0
-14 4 -14 9 0 5 -4 6 -10 3 -5 -3 -10 3 -10 14 0 32 -20 25 -21 -6 -1 -17 -3
-21 -6 -10 -6 22 -20 22 -26 -1 -3 -12 -5 -10 -7 8 -1 23 -2 24 -11 5 l-9 -20
2 20 c1 11 -2 33 -7 49 -4 16 -3 43 3 64 6 19 8 40 5 45 -11 18 -31 -52 -27
-95 l4 -43 -14 35 c-15 37 -22 25 -17 -30 2 -18 -1 -22 -8 -15 -14 13 -16 54
-6 80 7 16 5 16 -12 -4 l-20 -24 -6 31 c-4 18 -2 43 3 57 6 15 6 27 0 30 -5 3
-14 -9 -19 -27 -8 -30 -9 -31 -10 -7 -1 38 -13 43 -27 12 l-12 -28 3 30 c2 17
4 39 4 50 1 15 3 17 10 7 5 -9 10 -1 14 25 10 56 9 63 -10 64 -11 0 -13 3 -5
6 6 2 12 9 12 14 0 6 -4 7 -10 4 -5 -3 -10 -3 -11 2 0 4 -2 18 -3 30 -1 12 0
21 3 19 12 -8 26 21 29 59 2 22 10 50 18 62 12 20 12 22 -1 17 -8 -3 -22 -23
-32 -45 -10 -21 -22 -39 -27 -39 -5 0 -17 -7 -25 -14 -11 -10 -21 -12 -31 -6
-10 6 -11 10 -3 10 7 0 19 12 27 28 19 36 52 73 59 66 3 -3 8 4 12 16 4 12 12
19 20 16 8 -3 15 0 17 6 5 14 48 21 48 9 0 -16 -22 -24 -30 -11 -5 8 -9 7 -14
-5 -3 -9 -3 -21 0 -26 3 -6 -1 -21 -10 -34 -20 -30 -20 -39 -2 -32 7 3 19 0
25 -6 9 -9 11 -8 5 7 -4 10 -2 21 4 25 7 4 18 24 25 46 8 21 20 41 28 43 11 4
12 2 2 -9 -7 -7 -13 -30 -13 -51 0 -21 -4 -38 -9 -38 -5 0 -12 -8 -15 -17 -16
-59 -14 -63 7 -23 23 43 61 89 100 119 26 21 21 -4 -7 -31 -17 -17 -25 -37
-28 -76 -4 -43 -3 -50 8 -41 8 6 14 21 14 33 0 11 5 28 11 36 7 11 8 6 3 -20
-3 -19 -11 -40 -16 -47 -6 -8 -6 -18 1 -30 6 -10 11 -13 11 -7 0 5 12 26 26
45 15 19 24 26 20 17 -17 -49 -17 -52 3 -28 11 14 19 31 16 38 -2 6 2 12 10
12 17 0 20 -16 5 -25 -5 -3 -10 -13 -10 -20 0 -15 15 -13 57 7 20 10 21 13 8
31 -7 10 -11 26 -8 34 5 13 2 13 -14 4 -18 -9 -22 -7 -27 14 -4 16 -11 22 -21
19 -17 -7 -21 11 -5 21 15 9 2 25 -14 19 -18 -7 -30 29 -22 61 7 27 -10 43
-27 26 -6 -6 -16 -11 -22 -11 -5 0 -4 4 3 8 14 9 6 42 -10 42 -5 0 -6 5 -3 11
4 6 -1 16 -11 23 -11 9 -14 18 -9 27 12 18 14 49 4 55 -4 2 -11 -5 -14 -16 -9
-28 -31 -19 -27 10 4 23 1 22 -41 -13 -57 -47 -67 -47 -25 -1 18 20 33 39 34
42 0 4 4 15 8 24 4 9 6 27 4 39 -2 14 6 32 20 46 29 29 31 29 25 1 -4 -21 -4
-21 9 2 10 17 11 27 4 32 -7 5 -3 8 9 8 16 1 13 4 -10 15 -19 8 -24 14 -13 14
12 1 17 8 15 22 -1 16 4 22 24 24 22 3 30 -3 45 -33 22 -42 34 -54 51 -47 7 2
15 0 18 -5 4 -6 15 -10 26 -10 18 0 25 12 19 35 -2 6 -3 17 -2 26 0 11 -7 14
-27 11 -25 -3 -29 0 -32 25 -2 15 -3 38 -1 51 3 20 8 22 33 17 24 -6 29 -3 29
13 0 33 12 38 56 22z m1045 -47 c-8 -15 -10 -15 -11 -2 0 17 10 32 18 25 2 -3
-1 -13 -7 -23z m-111 -4 c0 -6 -4 -7 -10 -4 -5 3 -10 11 -10 16 0 6 5 7 10 4
6 -3 10 -11 10 -16z m90 -14 c0 -5 -5 -3 -10 5 -5 8 -10 20 -10 25 0 6 5 3 10
-5 5 -8 10 -19 10 -25z m39 -22 c-1 -21 -3 -30 -6 -20 -2 9 -9 15 -14 12 -13
-9 -11 14 4 30 17 20 17 19 16 -22z m-1429 -18 c0 -8 -4 -15 -10 -15 -5 0 -7
7 -4 15 4 8 8 15 10 15 2 0 4 -7 4 -15z m1505 5 c3 -5 1 -10 -4 -10 -6 0 -11
5 -11 10 0 6 2 10 4 10 3 0 8 -4 11 -10z m-69 -76 c-4 -9 -9 -15 -11 -12 -3 3
-3 13 1 22 4 9 9 15 11 12 3 -3 3 -13 -1 -22z m-1469 -6 c-3 -8 -6 -5 -6 6 -1
11 2 17 5 13 3 -3 4 -12 1 -19z m1570 -30 c-3 -7 -5 -2 -5 12 0 14 2 19 5 13
2 -7 2 -19 0 -25z m-28 -22 c-2 -19 -2 -19 -6 2 -3 15 -10 22 -18 18 -9 -3
-12 0 -8 10 8 21 33 -2 32 -30z m-49 -13 c0 -12 -4 -24 -9 -28 -6 -3 -9 11 -8
34 1 41 17 35 17 -6z m77 -15 c-3 -8 -6 -5 -6 6 -1 11 2 17 5 13 3 -3 4 -12 1
-19z m-1610 -40 c-3 -7 -5 -2 -5 12 0 14 2 19 5 13 2 -7 2 -19 0 -25z m1583
-33 c0 -5 -5 -3 -10 5 -5 8 -10 20 -10 25 0 6 5 3 10 -5 5 -8 10 -19 10 -25z
m416 -17 c-4 -47 -5 -48 -17 -48 -7 0 -8 12 -4 33 12 56 25 65 21 15z m114
-12 c0 -3 -4 -8 -10 -11 -5 -3 -10 -1 -10 4 0 6 5 11 10 11 6 0 10 -2 10 -4z
m-2640 -22 c0 -8 -4 -12 -10 -9 -5 3 -10 10 -10 16 0 5 5 9 10 9 6 0 10 -7 10
-16z m2145 -33 c-6 -6 -35 27 -35 39 0 7 9 2 19 -11 11 -13 18 -26 16 -28z
m-1585 -22 c-12 -16 -24 -28 -27 -26 -4 5 37 57 44 57 3 0 -5 -14 -17 -31z
m55 11 c-3 -5 -11 -10 -16 -10 -6 0 -7 5 -4 10 3 6 11 10 16 10 6 0 7 -4 4
-10z m63 -1 c-2 -6 -8 -11 -13 -11 -6 0 -16 -4 -22 -10 -7 -6 -13 -7 -13 -3 0
9 31 34 43 35 5 0 7 -5 5 -11z m1807 -41 c-7 -35 -75 -111 -75 -84 0 25 12 46
26 46 8 0 14 5 14 11 0 5 5 7 10 4 6 -4 10 7 10 24 0 17 5 31 11 31 7 0 8 -12
4 -32z m-1815 3 c0 -4 -8 -19 -19 -32 -10 -13 -16 -30 -14 -36 3 -7 0 -13 -6
-13 -6 0 -11 -7 -11 -15 0 -8 -4 -15 -10 -15 -5 0 -10 18 -10 41 0 32 3 40 15
35 8 -3 14 -2 12 2 -2 9 25 41 36 42 4 0 7 -4 7 -9z m-76 -25 c-6 -15 -44 -29
-44 -17 0 6 29 25 47 30 1 1 0 -5 -3 -13z m1836 4 c0 -5 -4 -10 -10 -10 -5 0
-10 5 -10 10 0 6 5 10 10 10 6 0 10 -4 10 -10z m-40 -20 c9 13 10 13 10 0 -1
-19 -21 -44 -40 -48 -8 -2 -18 -9 -22 -15 -5 -8 -8 -7 -8 3 0 9 7 26 16 38 8
12 12 28 9 35 -4 6 1 3 10 -8 14 -17 17 -18 25 -5z m-392 -30 c3 -7 0 -10 -5
-7 -6 4 -9 -5 -7 -21 2 -15 1 -21 -2 -14 -5 10 -9 10 -22 0 -14 -10 -15 -10
-4 2 6 8 12 25 12 38 0 25 20 27 28 2z m-1412 -17 c-2 -16 -15 -40 -30 -55
-30 -31 -49 -37 -40 -13 4 8 13 15 20 15 16 0 25 18 29 53 3 27 3 27 14 27 5
0 8 -12 7 -27z m-266 -5 c-1 -20 -13 -38 -25 -38 -14 0 -28 27 -20 40 6 9 45
8 45 -2z m414 -60 c-10 -13 -20 -25 -21 -27 -2 -2 -3 1 -3 7 0 11 27 42 37 42
3 0 -2 -10 -13 -22z m91 -27 c3 -5 1 -12 -5 -16 -5 -3 -10 1 -10 9 0 18 6 21
15 7z m1465 -1 c0 -5 -4 -10 -10 -10 -5 0 -10 5 -10 10 0 6 5 10 10 10 6 0 10
-4 10 -10z m-1434 -27 c-10 -10 -19 5 -10 18 6 11 8 11 12 0 2 -7 1 -15 -2
-18z m43 -54 c-19 -12 -29 -11 -29 2 0 5 5 7 12 3 7 -5 9 -2 5 8 -8 22 5 32
16 12 6 -11 5 -19 -4 -25z m1291 -13 c0 -3 -4 -8 -10 -11 -5 -3 -10 -1 -10 4
0 6 5 11 10 11 6 0 10 -2 10 -4z m-150 -46 c0 -5 -4 -10 -10 -10 -5 0 -10 5
-10 10 0 6 5 10 10 10 6 0 10 -4 10 -10z m-51 -32 c13 -35 23 -84 17 -77 -8 8
-35 99 -30 99 3 0 8 -10 13 -22z m78 0 c-3 -8 -6 -5 -6 6 -1 11 2 17 5 13 3
-3 4 -12 1 -19z m-303 -28 c3 -11 9 -30 12 -42 6 -20 5 -21 -10 -6 -9 9 -16
24 -16 32 0 9 -4 16 -9 16 -5 0 -11 9 -14 20 -4 16 -2 18 13 10 10 -6 21 -19
24 -30z m195 -120 c0 -33 -27 50 -33 101 l-5 54 19 -70 c11 -38 19 -77 19 -85z
m-40 60 c0 -9 -4 -8 -9 5 -5 11 -9 27 -9 35 0 9 4 8 9 -5 5 -11 9 -27 9 -35z
m65 24 c3 -8 2 -12 -4 -9 -6 3 -10 10 -10 16 0 14 7 11 14 -7z m-99 -52 c-7
-49 -24 -92 -36 -92 -4 0 -10 12 -12 28 -3 21 -4 19 -6 -11 -1 -47 -21 -40
-21 8 0 19 5 37 10 40 6 3 10 21 10 38 1 30 1 31 15 13 14 -18 20 -13 17 15
-1 3 6 6 14 6 13 0 15 -9 9 -45z m-65 -16 c0 -18 -17 8 -24 34 l-7 25 15 -25
c9 -14 15 -29 16 -34z m157 7 c-3 -10 -5 -4 -5 12 0 17 2 24 5 18 2 -7 2 -21
0 -30z m-50 -15 c-3 -8 -6 -5 -6 6 -1 11 2 17 5 13 3 -3 4 -12 1 -19z m-18
-65 c-1 -27 -4 -39 -6 -28 -3 11 -9 22 -14 25 -10 7 0 50 12 50 5 0 8 -21 8
-47z m51 17 c0 -11 -4 -20 -9 -20 -5 0 -7 9 -4 20 3 11 7 20 9 20 2 0 4 -9 4
-20z m-553 -87 c-3 -10 -5 -4 -5 12 0 17 2 24 5 18 2 -7 2 -21 0 -30z m350
-70 c-3 -10 -5 -4 -5 12 0 17 2 24 5 18 2 -7 2 -21 0 -30z m-360 -5 c-3 -7 -5
-2 -5 12 0 14 2 19 5 13 2 -7 2 -19 0 -25z m-270 -95 c-3 -10 -5 -4 -5 12 0
17 2 24 5 18 2 -7 2 -21 0 -30z"/>
<path d="M1150 1830 c0 -5 5 -10 11 -10 5 0 7 5 4 10 -3 6 -8 10 -11 10 -2 0
-4 -4 -4 -10z"/>
<path d="M1181 1707 c-11 -19 -21 -41 -21 -48 0 -8 12 5 26 29 14 24 24 46 21
48 -3 3 -14 -10 -26 -29z"/>
<path d="M1043 1616 c-15 -13 -24 -28 -20 -32 4 -5 13 -2 18 6 8 11 9 9 4 -10
-4 -14 -9 -36 -11 -50 -5 -24 -5 -24 10 -6 9 11 16 27 16 35 0 9 7 29 15 45 8
15 15 30 15 32 0 11 -22 1 -47 -20z"/>
<path d="M1111 1603 c-1 -7 -7 -12 -13 -10 -7 1 -14 -9 -15 -23 l-2 -25 8 25
c5 14 9 18 10 11 1 -11 4 -12 12 -4 6 6 9 17 6 25 -4 9 -6 10 -6 1z"/>
<path d="M1680 1658 c0 -9 5 -20 10 -23 13 -8 13 5 0 25 -8 13 -10 13 -10 -2z"/>
<path d="M1552 1620 c0 -14 2 -19 5 -12 2 6 2 18 0 25 -3 6 -5 1 -5 -13z"/>
<path d="M1667 1603 c-3 -15 -2 -32 3 -37 10 -10 30 1 30 16 0 7 -6 6 -15 -2
-18 -15 -20 1 -3 18 9 9 9 15 1 23 -7 7 -12 2 -16 -18z"/>
<path d="M1710 1543 c0 -25 1 -26 16 -11 9 9 13 21 10 27 -13 20 -26 11 -26
-16z"/>
<path d="M1920 1294 c-13 -33 -13 -34 5 -34 10 0 15 10 15 30 0 37 -7 38 -20
4z"/>
<path d="M2000 1289 c0 -11 4 -18 10 -14 5 3 7 12 3 20 -7 21 -13 19 -13 -6z"/>
<path d="M1238 1212 c-4 -15 -1 -18 14 -14 11 2 16 8 11 11 -4 3 -11 10 -14
14 -4 4 -9 -1 -11 -11z"/>
<path d="M2220 1182 c0 -13 39 -32 55 -26 13 5 10 9 -11 20 -29 16 -44 18 -44
6z"/>
<path d="M1280 1140 c0 -5 7 -10 15 -10 8 0 15 5 15 10 0 6 -7 10 -15 10 -8 0
-15 -4 -15 -10z"/>
<path d="M2127 1110 c-8 -11 -17 -17 -20 -13 -4 3 -7 1 -7 -5 0 -7 4 -12 10
-12 5 0 7 -6 4 -14 -3 -7 2 -16 10 -19 10 -4 13 -1 10 7 -5 13 50 32 83 29 19
-1 3 24 -23 36 -35 16 -51 14 -67 -9z m33 0 c0 -5 -5 -10 -11 -10 -5 0 -7 5
-4 10 3 6 8 10 11 10 2 0 4 -4 4 -10z"/>
<path d="M1996 1084 c-5 -13 -9 -14 -20 -5 -11 9 -19 9 -35 -1 -22 -14 -24
-20 -15 -55 4 -13 10 -20 15 -17 5 3 9 -4 9 -15 0 -12 -4 -21 -9 -21 -5 0 -11
-11 -13 -25 -3 -14 -1 -25 3 -25 5 0 11 11 15 25 7 30 12 31 30 8 13 -17 14
-16 20 5 5 18 9 20 15 10 7 -10 9 -11 9 0 0 7 4 11 9 8 12 -8 22 20 14 41 -5
11 -3 14 6 8 18 -10 5 33 -17 58 -19 21 -28 22 -36 1z"/>
<path d="M2057 1093 c-11 -11 -8 -19 18 -47 29 -31 32 -23 9 22 -17 35 -17 35
-27 25z"/>
<path d="M1455 1080 c2 -3 -1 -12 -6 -20 -8 -12 -12 -12 -16 -2 -2 6 -9 12
-15 12 -6 0 -4 -8 5 -18 10 -10 17 -26 17 -34 0 -25 29 -30 47 -8 13 15 19 16
25 7 5 -8 8 -6 8 7 0 11 8 28 18 39 16 19 16 20 -5 9 -16 -9 -22 -9 -26 1 -2
6 -15 12 -30 12 -14 1 -24 -2 -22 -5z m29 -45 c-9 -14 -18 -25 -21 -25 -5 0 5
18 20 38 17 22 18 13 1 -13z"/>
<path d="M1553 1058 c-6 -13 -14 -31 -17 -40 -3 -10 -15 -18 -26 -18 -11 0
-20 -5 -20 -11 0 -14 26 -40 33 -32 3 3 14 -3 24 -12 11 -11 18 -14 21 -6 2 6
8 11 14 11 6 0 3 -11 -6 -24 -10 -15 -12 -27 -6 -31 6 -3 10 0 10 8 0 8 9 22
20 32 11 10 20 24 20 32 0 8 4 12 8 9 4 -2 8 4 8 15 0 16 -4 15 -29 -9 l-28
-27 5 30 c2 17 5 33 5 36 1 4 7 7 14 6 36 -1 47 4 47 24 0 11 -4 18 -9 14 -5
-3 -13 -1 -16 5 -5 8 -11 7 -21 -1 -10 -8 -14 -8 -14 0 0 20 -26 12 -37 -11z
m21 -25 c-4 -15 -7 -34 -7 -41 0 -7 -6 -11 -13 -8 -7 3 -15 0 -18 -7 -2 -7 -5
-5 -5 4 -1 9 6 19 14 23 8 3 15 14 15 24 0 17 8 32 17 32 2 0 0 -12 -3 -27z"/>
<path d="M1663 1032 c-19 -40 -20 -49 -8 -58 8 -6 14 -13 12 -15 -1 -2 4 2 11
10 6 8 12 30 12 49 0 19 4 31 10 27 12 -7 12 -3 4 19 -10 25 -17 19 -41 -32z"/>
<path d="M1744 1072 c-16 -10 -35 -72 -23 -72 6 0 7 -4 4 -10 -3 -5 -2 -10 3
-10 6 0 12 6 15 13 3 6 12 29 21 50 16 37 8 49 -20 29z"/>
<path d="M1827 1056 c-24 -19 -27 -29 -27 -81 0 -69 7 -67 25 7 11 44 13 48
15 23 1 -16 2 -36 1 -42 -1 -7 3 -13 10 -13 6 0 8 -7 5 -16 -3 -8 -2 -12 4 -9
6 3 10 -1 10 -9 0 -9 3 -16 8 -16 4 0 7 39 7 86 0 98 -9 109 -58 70z"/>
<path d="M1901 1003 c-1 -24 4 -43 9 -43 12 0 12 37 0 65 -7 15 -9 10 -9 -22z"/>
<path d="M1764 1000 c-4 -16 -12 -30 -20 -30 -7 0 -27 -20 -45 -45 -18 -25
-36 -45 -41 -45 -4 0 -8 -5 -8 -12 0 -6 11 -1 25 12 29 27 47 19 21 -9 -14
-15 -15 -24 -6 -40 20 -38 80 -18 80 27 0 19 3 23 9 14 6 -11 9 -9 14 7 2 11
3 22 0 25 -5 5 -12 65 -14 109 -1 27 -9 20 -15 -13z m-39 -149 c3 -5 1 -12 -5
-16 -5 -3 -10 1 -10 9 0 18 6 21 15 7z"/>
<path d="M1650 920 c-6 -11 -7 -20 -3 -20 5 0 14 9 21 20 7 11 8 20 2 20 -5 0
-14 -9 -20 -20z"/>
<path d="M1952 919 c1 -13 8 -23 13 -21 15 3 12 35 -3 40 -9 3 -13 -3 -10 -19z"/>
<path d="M1832 905 c0 -16 2 -22 5 -12 2 9 2 23 0 30 -3 6 -5 -1 -5 -18z"/>
<path d="M1615 890 c3 -5 8 -10 11 -10 2 0 4 5 4 10 0 6 -5 10 -11 10 -5 0 -7
-4 -4 -10z"/>
<path d="M1861 878 c0 -9 -4 -25 -7 -35 -5 -17 -5 -17 6 0 6 10 9 25 7 35 -4
15 -5 15 -6 0z"/>
<path d="M1891 873 c0 -4 4 -17 9 -28 8 -19 9 -19 9 2 1 12 -3 25 -9 28 -5 3
-10 3 -9 -2z"/>
<path d="M1801 858 c0 -7 4 -22 8 -32 7 -18 8 -18 14 -3 3 9 2 17 -4 17 -6 0
-8 4 -4 9 3 5 1 12 -5 16 -5 3 -10 0 -9 -7z"/>
<path d="M1665 831 c-3 -6 -9 -9 -13 -7 -4 2 -8 -8 -9 -22 -1 -24 0 -25 10 -7
5 11 15 23 21 27 6 4 8 10 4 13 -3 4 -9 1 -13 -4z"/>
<path d="M1827 800 c-9 -31 -6 -70 5 -70 4 0 8 9 8 19 0 11 8 22 18 24 15 4
15 5 0 6 -9 0 -18 11 -21 24 -3 22 -4 22 -10 -3z"/>
<path d="M2400 810 c-8 -51 -8 -96 1 -109 8 -12 9 -8 5 17 -6 33 2 40 22 20 9
-9 12 -9 12 0 0 6 -6 15 -14 19 -8 4 -16 22 -19 38 -2 17 -5 23 -7 15z"/>
<path d="M1760 795 c-7 -8 -16 -12 -21 -9 -5 3 -9 0 -9 -5 0 -6 -7 -11 -15
-11 -9 0 -12 6 -9 15 6 15 -20 22 -29 7 -7 -11 40 -62 56 -62 8 0 17 -9 20
-20 6 -22 -8 -28 -16 -7 -4 9 -6 9 -6 -1 -1 -7 4 -19 11 -26 19 -20 58 31 51
67 -3 16 -1 27 6 27 6 0 11 8 11 17 0 15 -2 14 -19 -3 -10 -10 -16 -25 -13
-31 5 -16 -14 -17 -23 -2 -4 5 1 19 11 30 9 10 15 21 12 24 -3 3 -11 -1 -18
-10z"/>
<path d="M1647 729 c4 -15 8 -17 14 -8 8 14 3 29 -11 29 -4 0 -6 -9 -3 -21z"/>
<path d="M1203 703 c-7 -3 -13 -12 -13 -21 0 -15 2 -15 17 1 18 18 16 27 -4
20z"/>
<path d="M1426 693 c-6 -14 -5 -15 5 -6 7 7 10 15 7 18 -3 3 -9 -2 -12 -12z"/>
<path d="M1521 698 c1 -7 5 -24 9 -38 7 -22 8 -21 9 13 1 20 -3 37 -9 37 -5 0
-10 -6 -9 -12z"/>
<path d="M1611 694 c0 -11 3 -14 6 -6 3 7 2 16 -1 19 -3 4 -6 -2 -5 -13z"/>
<path d="M2260 682 c43 -38 50 -39 48 -7 -2 15 -9 25 -18 25 -8 0 -26 3 -40 6
-23 6 -22 4 10 -24z"/>
<path d="M1099 683 c-13 -16 -12 -17 4 -4 9 7 17 15 17 17 0 8 -8 3 -21 -13z"/>
<path d="M1656 684 c-9 -24 -7 -31 9 -31 8 0 15 8 15 18 0 24 -16 33 -24 13z"/>
<path d="M1970 693 c1 -4 7 -19 14 -32 l14 -24 11 21 c6 12 9 23 6 23 -3 1 -8
2 -12 3 -5 1 -14 5 -20 9 -7 5 -13 5 -13 0z"/>
<path d="M2070 698 c0 -10 30 -78 35 -78 6 0 -16 63 -26 75 -5 5 -9 6 -9 3z"/>
<path d="M1885 679 c-11 -17 1 -21 15 -4 8 9 8 15 2 15 -6 0 -14 -5 -17 -11z"/>
<path d="M1978 621 c2 -16 -3 -44 -11 -60 -9 -17 -12 -31 -8 -31 10 0 3 -111
-9 -125 -6 -7 -5 -25 2 -48 l11 -36 14 25 c13 27 9 49 -8 39 -12 -8 -12 8 0
20 14 16 24 125 12 125 -6 0 -11 5 -11 10 0 6 7 10 15 10 8 0 16 8 17 18 0 9
2 22 2 29 1 6 5 15 9 19 12 12 8 26 -7 21 -7 -3 -18 -1 -23 4 -6 6 -8 -1 -5
-20z"/>
<path d="M2034 615 c-7 -19 -14 -41 -14 -49 0 -8 -5 -16 -11 -18 -13 -4 -3
-48 11 -48 5 0 11 13 15 30 5 24 9 27 20 17 8 -8 10 -18 4 -29 -16 -30 -9 -41
11 -18 16 18 19 31 14 59 -4 20 -12 43 -18 51 -10 13 -9 13 7 1 20 -16 22 -4
3 22 -19 24 -25 22 -42 -18z m26 -19 c0 -3 -4 -8 -10 -11 -5 -3 -10 -1 -10 4
0 6 5 11 10 11 6 0 10 -2 10 -4z"/>
<path d="M1820 620 c0 -5 7 -10 15 -10 8 0 15 5 15 10 0 6 -7 10 -15 10 -8 0
-15 -4 -15 -10z"/>
<path d="M1080 611 c0 -6 5 -13 10 -16 6 -3 10 1 10 9 0 9 -4 16 -10 16 -5 0
-10 -4 -10 -9z"/>
<path d="M1500 610 c-8 -5 -12 -12 -9 -15 4 -3 12 1 19 10 14 17 11 19 -10 5z"/>
<path d="M1921 599 c0 -15 -8 -29 -16 -33 -8 -3 -15 -10 -15 -16 0 -6 5 -8 10
-5 6 4 10 -9 11 -32 0 -35 1 -36 10 -14 15 39 28 101 19 96 -5 -3 -11 3 -13
12 -3 12 -5 9 -6 -8z"/>
<path d="M1585 588 c-15 -22 -16 -22 -27 -4 -8 15 -12 16 -19 5 -10 -17 -1
-59 19 -82 8 -9 12 -20 9 -24 -4 -3 -7 0 -7 7 0 7 -3 10 -6 7 -4 -4 -2 -13 4
-20 22 -26 43 -100 32 -111 -5 -5 -10 -17 -10 -25 0 -11 3 -11 13 3 12 16 13
14 10 -23 -2 -23 1 -41 7 -41 17 0 23 29 10 45 -9 10 -9 15 -1 15 6 0 11 8 11
18 0 13 2 14 9 4 10 -16 22 7 26 50 1 14 10 37 19 49 17 25 22 74 7 83 -5 3
-14 -9 -21 -27 -11 -29 -13 -30 -20 -12 -5 11 -9 30 -9 43 -1 26 -21 30 -21 5
-1 -17 -1 -17 -11 0 -6 10 -9 27 -6 38 7 25 2 24 -18 -3z m51 -133 c-4 -14
-10 -25 -15 -25 -5 0 -4 16 2 36 12 39 23 29 13 -11z"/>
<path d="M1870 591 c0 -6 5 -13 10 -16 6 -3 10 1 10 9 0 9 -4 16 -10 16 -5 0
-10 -4 -10 -9z"/>
<path d="M1700 576 c0 -9 5 -16 10 -16 6 0 10 4 10 9 0 6 -4 13 -10 16 -5 3
-10 -1 -10 -9z"/>
<path d="M2090 576 c0 -8 5 -18 10 -21 6 -3 10 1 10 9 0 8 -4 18 -10 21 -5 3
-10 -1 -10 -9z"/>
<path d="M1260 559 c0 -11 5 -17 10 -14 6 3 10 13 10 21 0 8 -4 14 -10 14 -5
0 -10 -9 -10 -21z"/>
<path d="M1661 564 c0 -11 3 -14 6 -6 3 7 2 16 -1 19 -3 4 -6 -2 -5 -13z"/>
<path d="M1494 553 c4 -8 1 -13 -8 -13 -19 0 -30 -53 -16 -79 6 -12 12 -21 15
-21 2 0 8 23 14 52 9 39 9 54 0 62 -9 8 -10 8 -5 -1z"/>
<path d="M1717 529 c4 -16 8 -17 14 -7 13 19 11 28 -5 28 -9 0 -12 -7 -9 -21z"/>
<path d="M1140 511 c0 -11 4 -22 9 -25 4 -3 6 6 3 19 -5 30 -12 33 -12 6z"/>
<path d="M1520 500 c0 -18 4 -29 10 -25 6 3 10 15 10 25 0 10 -4 22 -10 25 -6
4 -10 -7 -10 -25z"/>
<path d="M2105 521 c-3 -5 -1 -12 5 -16 5 -3 10 1 10 9 0 18 -6 21 -15 7z"/>
<path d="M2145 499 c5 -15 4 -19 -4 -15 -7 5 -11 -4 -12 -26 0 -18 -3 -27 -6
-20 -7 17 -23 15 -23 -3 0 -8 -4 -15 -10 -15 -5 0 -10 9 -10 19 0 10 -6 21
-14 24 -11 4 -13 -8 -10 -60 4 -77 13 -96 15 -32 2 31 3 36 6 16 4 -24 7 -26
19 -16 13 10 17 10 24 0 10 -18 22 2 14 26 -3 10 2 5 11 -10 9 -15 13 -36 10
-46 -3 -10 -2 -27 2 -37 16 -40 19 40 4 100 -9 39 -11 61 -4 63 12 4 4 53 -9
53 -5 0 -6 -10 -3 -21z"/>
<path d="M1427 481 c-2 -10 -1 -24 3 -31 5 -7 9 0 12 19 5 34 -7 43 -15 12z"/>
<path d="M1750 486 c0 -8 5 -18 10 -21 6 -3 10 3 10 14 0 12 -4 21 -10 21 -5
0 -10 -6 -10 -14z"/>
<path d="M1722 463 c-25 -49 -18 -142 8 -103 5 8 10 22 10 30 0 12 2 12 9 2 6
-10 10 -6 15 14 5 18 3 30 -3 32 -6 2 -11 10 -11 17 0 22 -18 27 -28 8z"/>
<path d="M1516 451 c-2 -3 -7 -26 -11 -51 -7 -41 -6 -43 9 -31 9 8 15 20 12
27 -3 7 1 18 9 24 11 9 14 6 17 -11 4 -27 28 -38 28 -12 -1 27 -23 58 -43 59
-9 1 -19 -1 -21 -5z"/>
<path d="M1811 444 c0 -11 3 -14 6 -6 3 7 2 16 -1 19 -3 4 -6 -2 -5 -13z"/>
<path d="M1299 418 c0 -7 -2 -23 -3 -35 -2 -13 1 -23 5 -23 4 0 7 16 7 35 0
33 -7 50 -9 23z"/>
<path d="M1801 377 c-1 -27 3 -46 7 -43 5 3 7 -9 5 -27 l-3 -32 11 27 c8 21 7
39 -4 75 l-15 48 -1 -48z"/>
<path d="M2228 383 c3 -18 7 -21 13 -11 12 18 11 25 -4 31 -10 4 -13 -2 -9
-20z"/>
<path d="M2205 381 c-3 -5 -1 -12 5 -16 5 -3 10 1 10 9 0 18 -6 21 -15 7z"/>
<path d="M1773 340 c0 -25 2 -35 4 -22 2 12 2 32 0 45 -2 12 -4 2 -4 -23z"/>
<path d="M1464 359 c-3 -6 -2 -15 4 -21 6 -6 11 -2 15 11 5 22 -7 29 -19 10z"/>
<path d="M1558 343 c5 -21 7 -23 10 -9 2 10 0 22 -6 28 -6 6 -7 0 -4 -19z"/>
<path d="M1672 350 c0 -14 2 -19 5 -12 2 6 2 18 0 25 -3 6 -5 1 -5 -13z"/>
<path d="M1412 339 c-9 -14 -10 -24 -2 -37 8 -12 10 -12 7 -2 -2 8 0 23 5 33
13 26 5 31 -10 6z"/>
<path d="M1991 324 c0 -11 3 -14 6 -6 3 7 2 16 -1 19 -3 4 -6 -2 -5 -13z"/>
<path d="M1232 310 c0 -14 2 -19 5 -12 2 6 2 18 0 25 -3 6 -5 1 -5 -13z"/>
<path d="M1661 283 c-1 -17 4 -35 9 -38 12 -7 12 22 0 50 -7 17 -9 15 -9 -12z"/>
<path d="M1560 262 c0 -5 10 -17 22 -28 l21 -19 -18 28 c-18 28 -25 33 -25 19z"/>
<path d="M1770 224 c0 -32 1 -34 16 -19 12 11 13 19 5 29 -6 7 -8 16 -4 19 3
4 1 7 -5 7 -7 0 -12 -15 -12 -36z"/>
<path d="M1642 220 c0 -14 2 -19 5 -12 2 6 2 18 0 25 -3 6 -5 1 -5 -13z"/>
<path d="M1740 189 c0 -5 5 -7 10 -4 6 3 10 8 10 11 0 2 -4 4 -10 4 -5 0 -10
-5 -10 -11z"/>
<path d="M3028 2015 c2 -14 6 -25 8 -25 2 0 4 11 4 25 0 14 -4 25 -9 25 -4 0
-6 -11 -3 -25z"/>
<path d="M461 1993 c0 -12 -4 -30 -7 -40 -5 -17 -5 -17 6 0 6 10 9 28 7 40 -4
22 -4 22 -6 0z"/>
<path d="M2670 1890 c0 -5 5 -10 10 -10 6 0 10 5 10 10 0 6 -4 10 -10 10 -5 0
-10 -4 -10 -10z"/>
<path d="M3060 1890 c0 -5 5 -10 10 -10 6 0 10 5 10 10 0 6 -4 10 -10 10 -5 0
-10 -4 -10 -10z"/>
<path d="M2530 1879 c0 -5 5 -7 10 -4 6 3 10 8 10 11 0 2 -4 4 -10 4 -5 0 -10
-5 -10 -11z"/>
<path d="M2545 1860 c-3 -5 -1 -10 4 -10 6 0 11 5 11 10 0 6 -2 10 -4 10 -3 0
-8 -4 -11 -10z"/>
<path d="M446 1821 c-4 -7 -5 -15 -2 -18 9 -9 19 4 14 18 -4 11 -6 11 -12 0z"/>
<path d="M3050 1819 c0 -5 5 -7 10 -4 6 3 10 8 10 11 0 2 -4 4 -10 4 -5 0 -10
-5 -10 -11z"/>
<path d="M510 1795 c0 -8 5 -15 10 -15 6 0 10 7 10 15 0 8 -4 15 -10 15 -5 0
-10 -7 -10 -15z"/>
<path d="M576 1795 c4 -8 8 -15 10 -15 2 0 4 7 4 15 0 8 -4 15 -10 15 -5 0 -7
-7 -4 -15z"/>
<path d="M462 1783 c-17 -30 -15 -37 4 -19 8 9 14 22 11 29 -2 7 -8 4 -15 -10z"/>
<path d="M571 1734 c0 -11 3 -14 6 -6 3 7 2 16 -1 19 -3 4 -6 -2 -5 -13z"/>
<path d="M590 1718 c0 -20 6 -38 13 -41 9 -3 9 -7 1 -18 -8 -10 -7 -21 3 -39
12 -23 13 -20 8 30 -7 72 -10 88 -18 96 -4 4 -7 -9 -7 -28z"/>
<path d="M480 1730 c0 -5 -6 -7 -14 -4 -16 6 -30 -22 -16 -31 6 -4 10 -2 10 4
0 6 7 8 15 5 8 -4 15 -12 15 -19 0 -7 5 -15 11 -17 6 -2 9 -13 6 -23 -5 -19
-5 -19 -12 2 -4 12 -13 24 -21 27 -11 4 -14 -7 -14 -54 0 -45 4 -60 14 -60 8
0 17 -8 21 -17 6 -17 7 -17 21 1 13 19 14 18 20 -11 5 -24 10 -30 25 -26 26 7
24 17 -6 37 -16 11 -25 26 -25 43 0 14 3 24 6 20 8 -7 34 17 34 32 0 17 -18
13 -30 -6 -10 -16 -11 -16 -6 -1 2 9 -2 22 -9 28 -8 7 -17 27 -21 46 -6 30
-24 49 -24 24z m40 -161 c0 -5 -4 -9 -10 -9 -5 0 -10 7 -10 16 0 8 5 12 10 9
6 -3 10 -10 10 -16z"/>
<path d="M808 1733 c-10 -2 -18 -9 -18 -15 0 -5 7 -7 16 -4 9 3 20 6 25 6 5 0
9 5 9 10 0 10 -3 11 -32 3z"/>
<path d="M857 1727 c-3 -8 4 -14 17 -15 14 -1 23 4 23 13 0 18 -33 20 -40 2z"/>
<path d="M2865 1727 c-5 -7 -12 -30 -13 -52 -5 -49 -8 -54 -26 -29 -20 26 -29
12 -29 -41 0 -31 -4 -42 -11 -36 -7 6 -18 4 -29 -4 -16 -12 -16 -13 3 -18 16
-4 20 -14 22 -49 1 -36 2 -38 5 -10 5 40 23 42 23 2 0 -16 5 -30 10 -30 6 0
10 11 10 25 0 14 5 25 10 25 6 0 10 -7 10 -15 0 -13 2 -14 14 -3 12 11 12 14
-5 22 -13 6 -19 19 -18 40 1 29 1 30 8 6 6 -23 8 -23 14 -6 4 10 5 27 2 37 -5
14 -1 19 14 19 14 0 19 6 18 20 -1 11 -7 18 -13 16 -9 -3 -8 3 2 22 7 14 9 31
5 36 -5 6 -10 16 -12 23 -3 8 -6 8 -14 0z"/>
<path d="M540 1720 c0 -5 5 -10 11 -10 5 0 7 5 4 10 -3 6 -8 10 -11 10 -2 0
-4 -4 -4 -10z"/>
<path d="M632 1714 c-12 -13 -11 -21 3 -50 9 -18 20 -34 25 -34 6 0 10 -12 10
-26 0 -17 6 -28 20 -31 11 -3 20 -12 20 -20 0 -13 3 -13 15 -3 13 10 15 9 15
-9 0 -13 4 -19 10 -16 6 4 7 12 1 22 -10 18 -3 53 10 53 5 0 9 10 10 23 1 20
2 20 12 -5 6 -16 14 -28 19 -28 4 0 8 -7 8 -15 0 -12 4 -13 25 -3 14 6 25 19
25 30 0 19 -15 24 -25 8 -12 -19 -22 -10 -39 35 -22 56 -32 63 -57 36 -25 -27
-42 -27 -34 -1 5 14 2 20 -10 20 -9 0 -18 -12 -21 -30 -10 -49 -28 -36 -21 15
7 47 1 55 -21 29z"/>
<path d="M546 1683 c-6 -14 -5 -15 5 -6 7 7 10 15 7 18 -3 3 -9 -2 -12 -12z"/>
<path d="M3140 1690 c0 -5 5 -10 10 -10 6 0 10 5 10 10 0 6 -4 10 -10 10 -5 0
-10 -4 -10 -10z"/>
<path d="M820 1675 c0 -8 5 -15 10 -15 6 0 10 7 10 15 0 8 -4 15 -10 15 -5 0
-10 -7 -10 -15z"/>
<path d="M3040 1672 c0 -12 19 -26 26 -19 2 2 -2 10 -11 17 -9 8 -15 8 -15 2z"/>
<path d="M3006 1655 c4 -8 11 -15 16 -15 6 0 5 6 -2 15 -7 8 -14 15 -16 15 -2
0 -1 -7 2 -15z"/>
<path d="M910 1640 c0 -5 -9 -10 -21 -10 -24 0 -21 -23 4 -28 10 -2 17 3 17
12 0 9 7 16 16 16 8 0 12 5 9 10 -3 6 -10 10 -16 10 -5 0 -9 -4 -9 -10z"/>
<path d="M430 1625 c0 -8 5 -15 10 -15 6 0 10 7 10 15 0 8 -4 15 -10 15 -5 0
-10 -7 -10 -15z"/>
<path d="M3036 1631 c-9 -14 5 -42 18 -38 15 5 14 39 -1 44 -6 2 -14 0 -17 -6z"/>
<path d="M2680 1620 c0 -5 5 -10 10 -10 6 0 10 5 10 10 0 6 -4 10 -10 10 -5 0
-10 -4 -10 -10z"/>
<path d="M2665 1590 c3 -5 10 -10 16 -10 5 0 9 5 9 10 0 6 -7 10 -16 10 -8 0
-12 -4 -9 -10z"/>
<path d="M420 1566 c0 -8 4 -17 9 -20 10 -7 23 19 14 28 -11 11 -23 6 -23 -8z"/>
<path d="M880 1565 c-11 -13 -10 -14 4 -9 10 4 16 1 16 -7 0 -11 3 -11 10 1 5
8 10 18 10 23 0 13 -27 7 -40 -8z"/>
<path d="M2995 1570 c-3 -5 -1 -10 5 -10 7 0 9 -8 5 -19 -12 -40 -24 -132 -18
-148 5 -13 9 -12 24 8 17 22 25 17 20 -13 -2 -13 17 -9 22 5 3 6 6 3 6 -8 1
-11 -6 -32 -13 -47 -11 -20 -12 -28 -3 -28 7 0 17 -12 24 -25 11 -24 8 -49
-12 -96 -7 -19 16 -32 40 -23 11 5 13 16 9 45 -5 28 -3 39 6 39 8 0 10 9 5 27
-5 22 -4 25 8 14 8 -6 13 -20 10 -30 -3 -10 0 -22 6 -25 10 -7 18 43 11 69 -2
6 -5 22 -8 37 -3 22 -7 26 -21 18 -25 -13 -36 0 -36 40 0 23 -4 34 -12 33 -7
-2 -13 6 -13 16 0 30 -11 51 -26 51 -9 0 -12 8 -8 28 6 30 -18 63 -31 42z
m102 -272 c-3 -8 -6 -5 -6 6 -1 11 2 17 5 13 3 -3 4 -12 1 -19z m-12 -108 c3
-5 1 -10 -4 -10 -6 0 -11 5 -11 10 0 6 2 10 4 10 3 0 8 -4 11 -10z"/>
<path d="M3057 1574 c-4 -4 -7 -20 -7 -36 0 -35 23 -34 28 1 4 25 -10 46 -21
35z"/>
<path d="M776 1562 c-2 -4 -1 -14 3 -21 6 -10 10 -9 14 3 6 16 -8 32 -17 18z"/>
<path d="M3276 1545 c-9 -14 -25 -25 -36 -25 -11 0 -20 -4 -20 -10 0 -13 15
-13 43 2 12 6 29 14 37 18 8 4 15 13 15 20 0 24 -22 21 -39 -5z"/>
<path d="M460 1523 c0 -10 5 -25 10 -33 8 -12 10 -9 10 12 0 15 -4 30 -10 33
-5 3 -10 -2 -10 -12z"/>
<path d="M872 1510 c0 -14 2 -19 5 -12 2 6 2 18 0 25 -3 6 -5 1 -5 -13z"/>
<path d="M2700 1502 c0 -18 5 -29 14 -29 8 0 14 5 13 11 -1 6 4 10 11 9 6 -2
12 4 12 13 0 8 -4 13 -9 9 -5 -3 -12 -1 -16 5 -12 19 -25 10 -25 -18z"/>
<path d="M2940 1501 c0 -5 -12 -12 -27 -14 -26 -4 -26 -4 5 -6 22 -1 32 3 32
14 0 8 -2 15 -5 15 -3 0 -5 -4 -5 -9z"/>
<path d="M3070 1475 c0 -8 4 -15 9 -15 5 0 11 7 15 15 3 9 0 15 -9 15 -8 0
-15 -7 -15 -15z"/>
<path d="M3373 1465 c-26 -26 -29 -35 -9 -35 12 0 46 40 46 55 0 10 -15 2 -37
-20z"/>
<path d="M880 1466 c0 -8 6 -16 14 -19 10 -4 12 0 9 14 -6 22 -23 26 -23 5z"/>
<path d="M462 1459 c2 -6 8 -10 13 -10 5 0 11 4 13 10 2 6 -4 11 -13 11 -9 0
-15 -5 -13 -11z"/>
<path d="M2912 1455 c1 -9 7 -15 12 -15 5 1 13 -4 18 -12 6 -9 8 -6 6 12 -2
15 -10 26 -21 28 -13 3 -18 -1 -15 -13z"/>
<path d="M780 1450 c0 -6 -4 -8 -10 -5 -5 3 -10 2 -10 -3 0 -6 6 -12 14 -15
16 -6 30 19 16 28 -6 4 -10 1 -10 -5z"/>
<path d="M2677 1453 c-4 -6 -3 -22 2 -35 6 -12 10 -17 10 -10 1 10 6 10 22 2
11 -7 24 -9 27 -5 9 8 -28 36 -39 30 -4 -3 -9 3 -11 12 -2 12 -6 14 -11 6z"/>
<path d="M2750 1446 c0 -9 5 -16 10 -16 6 0 10 4 10 9 0 6 -4 13 -10 16 -5 3
-10 -1 -10 -9z"/>
<path d="M2640 1420 c0 -5 5 -10 10 -10 6 0 10 5 10 10 0 6 -4 10 -10 10 -5 0
-10 -4 -10 -10z"/>
<path d="M2846 1417 c3 -10 9 -15 12 -12 3 3 0 11 -7 18 -10 9 -11 8 -5 -6z"/>
<path d="M2941 1376 c-10 -12 -8 -13 8 -9 12 3 18 9 15 14 -7 12 -10 11 -23
-5z"/>
<path d="M2648 1358 c-17 -26 -24 -58 -12 -58 16 0 35 33 32 57 l-3 27 -17
-26z"/>
<path d="M510 1350 c0 -5 5 -10 10 -10 6 0 10 5 10 10 0 6 -4 10 -10 10 -5 0
-10 -4 -10 -10z"/>
<path d="M861 1334 c0 -11 3 -14 6 -6 3 7 2 16 -1 19 -3 4 -6 -2 -5 -13z"/>
<path d="M2721 1334 c0 -11 3 -14 6 -6 3 7 2 16 -1 19 -3 4 -6 -2 -5 -13z"/>
<path d="M2701 1304 c0 -11 3 -14 6 -6 3 7 2 16 -1 19 -3 4 -6 -2 -5 -13z"/>
<path d="M318 1295 c-3 -11 -9 -31 -12 -45 -7 -33 -73 -103 -89 -94 -7 4 -3
-2 7 -14 25 -28 58 -28 92 1 26 23 26 24 17 97 -5 46 -11 67 -15 55z"/>
<path d="M406 1294 c-9 -22 -8 -24 9 -24 8 0 15 6 15 14 0 22 -17 28 -24 10z"/>
<path d="M2910 1275 c0 -17 5 -25 13 -22 6 2 12 12 12 22 0 10 -6 20 -12 23
-8 2 -13 -6 -13 -23z"/>
<path d="M460 1265 c0 -8 -5 -15 -11 -15 -5 0 -7 -5 -4 -11 5 -7 14 -4 26 7
23 21 24 34 4 34 -8 0 -15 -7 -15 -15z"/>
<path d="M937 1253 c-4 -3 -7 -20 -6 -37 l1 -31 8 35 c9 36 8 45 -3 33z"/>
<path d="M2857 1243 c-4 -3 -7 -13 -7 -22 1 -13 3 -13 11 2 11 19 8 33 -4 20z"/>
<path d="M476 1225 c-3 -9 1 -18 9 -21 8 -4 15 -15 15 -25 0 -25 17 -24 31 2
9 17 7 24 -10 40 -24 23 -37 24 -45 4z"/>
<path d="M2681 1224 c0 -11 3 -14 6 -6 3 7 2 16 -1 19 -3 4 -6 -2 -5 -13z"/>
<path d="M2912 1220 c0 -14 2 -19 5 -12 2 6 2 18 0 25 -3 6 -5 1 -5 -13z"/>
<path d="M436 1171 c-4 -7 -5 -15 -2 -18 9 -9 19 4 14 18 -4 11 -6 11 -12 0z"/>
<path d="M857 1161 c2 -8 -2 -18 -9 -23 -10 -6 -9 -8 3 -8 9 0 19 9 22 20 3
11 1 18 -3 15 -5 -3 -10 -2 -13 2 -2 5 -2 2 0 -6z"/>
<path d="M971 1164 c0 -11 3 -14 6 -6 3 7 2 16 -1 19 -3 4 -6 -2 -5 -13z"/>
<path d="M921 1144 c0 -11 3 -14 6 -6 3 7 2 16 -1 19 -3 4 -6 -2 -5 -13z"/>
<path d="M2961 1137 c-13 -21 -12 -21 5 -5 10 10 16 20 13 22 -3 3 -11 -5 -18
-17z"/>
<path d="M3080 1136 c0 -9 5 -16 10 -16 6 0 10 4 10 9 0 6 -4 13 -10 16 -5 3
-10 -1 -10 -9z"/>
<path d="M3182 1108 c-13 -36 -6 -50 38 -68 38 -16 83 -6 78 18 -2 10 -12 17
-25 16 -13 -1 -21 1 -19 5 2 3 -11 18 -29 33 l-31 27 -12 -31z"/>
<path d="M2861 1104 c0 -11 3 -14 6 -6 3 7 2 16 -1 19 -3 4 -6 -2 -5 -13z"/>
<path d="M910 1070 c0 -5 5 -10 10 -10 6 0 10 5 10 10 0 6 -4 10 -10 10 -5 0
-10 -4 -10 -10z"/>
<path d="M2650 980 c0 -5 7 -10 15 -10 8 0 15 5 15 10 0 6 -7 10 -15 10 -8 0
-15 -4 -15 -10z"/>
<path d="M2710 895 c0 -8 5 -15 10 -15 6 0 10 -4 10 -10 0 -5 -7 -10 -15 -10
-8 0 -15 5 -15 11 0 5 -4 7 -10 4 -5 -3 -10 -15 -10 -26 0 -10 -4 -19 -10 -19
-5 0 -10 -4 -10 -10 0 -14 28 -12 32 2 4 10 10 10 32 0 18 -8 25 -9 20 -1 -3
6 -1 15 6 19 10 6 8 15 -6 39 -20 33 -34 40 -34 16z"/>
<path d="M870 886 c0 -22 17 -28 24 -10 9 22 8 24 -9 24 -8 0 -15 -6 -15 -14z"/>
<path d="M2777 887 c-11 -29 -9 -43 4 -30 6 6 9 19 7 29 -3 18 -4 18 -11 1z"/>
<path d="M2625 870 c3 -5 11 -10 16 -10 6 0 7 5 4 10 -3 6 -11 10 -16 10 -6 0
-7 -4 -4 -10z"/>
<path d="M2591 804 c0 -11 3 -14 6 -6 3 7 2 16 -1 19 -3 4 -6 -2 -5 -13z"/>
<path d="M2644 778 c3 -13 5 -25 6 -28 0 -3 5 3 11 13 10 18 5 37 -12 37 -5 0
-7 -10 -5 -22z"/>
</g>
</svg>
